<mxfile host="app.diagrams.net" modified="2023-11-20T10:10:25.388Z" agent="Mozilla/5.0 (Windows NT 10.0; Win64; x64) AppleWebKit/537.36 (KHTML, like Gecko) Chrome/119.0.0.0 Safari/537.36" etag="REC3h_8bRnD4Bzxfk7Lc" version="22.1.3" type="github" pages="2">
  <diagram id="C5RBs43oDa-KdzZeNtuy" name="Page-1">
    <mxGraphModel dx="1434" dy="750" grid="1" gridSize="10" guides="1" tooltips="1" connect="1" arrows="1" fold="1" page="1" pageScale="1" pageWidth="827" pageHeight="1169" math="0" shadow="0">
      <root>
        <mxCell id="WIyWlLk6GJQsqaUBKTNV-0" />
        <mxCell id="WIyWlLk6GJQsqaUBKTNV-1" parent="WIyWlLk6GJQsqaUBKTNV-0" />
        <mxCell id="Q6_IJKQK7bqe_PZ6sxX8-25" value="" style="edgeStyle=orthogonalEdgeStyle;rounded=0;orthogonalLoop=1;jettySize=auto;html=1;fontColor=#143642;startArrow=none;startFill=0;strokeWidth=3;fillColor=#dae8fc;strokeColor=#6c8ebf;" edge="1" parent="WIyWlLk6GJQsqaUBKTNV-1" source="Q6_IJKQK7bqe_PZ6sxX8-0" target="Q6_IJKQK7bqe_PZ6sxX8-24">
          <mxGeometry relative="1" as="geometry" />
        </mxCell>
        <mxCell id="Q6_IJKQK7bqe_PZ6sxX8-0" value="插件服务配置" style="rounded=1;whiteSpace=wrap;html=1;strokeWidth=3;shadow=1;fillColor=#dae8fc;strokeColor=none;" vertex="1" parent="WIyWlLk6GJQsqaUBKTNV-1">
          <mxGeometry x="220" y="295" width="120" height="60" as="geometry" />
        </mxCell>
        <mxCell id="Q6_IJKQK7bqe_PZ6sxX8-6" value="" style="edgeStyle=orthogonalEdgeStyle;rounded=0;orthogonalLoop=1;jettySize=auto;html=1;fontColor=#143642;strokeWidth=3;shadow=1;fillColor=#dae8fc;strokeColor=#6c8ebf;" edge="1" parent="WIyWlLk6GJQsqaUBKTNV-1" source="Q6_IJKQK7bqe_PZ6sxX8-2" target="Q6_IJKQK7bqe_PZ6sxX8-0">
          <mxGeometry relative="1" as="geometry" />
        </mxCell>
        <mxCell id="Q6_IJKQK7bqe_PZ6sxX8-2" value="" style="shape=curlyBracket;whiteSpace=wrap;html=1;rounded=1;labelPosition=left;verticalLabelPosition=middle;align=right;verticalAlign=middle;strokeWidth=3;shadow=1;fillColor=#dae8fc;strokeColor=#6c8ebf;" vertex="1" parent="WIyWlLk6GJQsqaUBKTNV-1">
          <mxGeometry x="360" y="210" width="20" height="230" as="geometry" />
        </mxCell>
        <mxCell id="Q6_IJKQK7bqe_PZ6sxX8-3" value="ASR模型服务" style="rounded=1;whiteSpace=wrap;html=1;strokeWidth=3;shadow=1;fillColor=#dae8fc;strokeColor=none;" vertex="1" parent="WIyWlLk6GJQsqaUBKTNV-1">
          <mxGeometry x="400" y="170" width="120" height="60" as="geometry" />
        </mxCell>
        <mxCell id="Q6_IJKQK7bqe_PZ6sxX8-4" value="TTS模型服务" style="rounded=1;whiteSpace=wrap;html=1;strokeWidth=3;shadow=1;fillColor=#dae8fc;strokeColor=none;" vertex="1" parent="WIyWlLk6GJQsqaUBKTNV-1">
          <mxGeometry x="400" y="240" width="120" height="60" as="geometry" />
        </mxCell>
        <mxCell id="Q6_IJKQK7bqe_PZ6sxX8-5" value="代码解释器" style="rounded=1;whiteSpace=wrap;html=1;strokeWidth=3;shadow=1;fillColor=#dae8fc;strokeColor=none;" vertex="1" parent="WIyWlLk6GJQsqaUBKTNV-1">
          <mxGeometry x="400" y="310" width="120" height="60" as="geometry" />
        </mxCell>
        <mxCell id="Q6_IJKQK7bqe_PZ6sxX8-7" value="其他插件服务" style="rounded=1;whiteSpace=wrap;html=1;strokeWidth=3;shadow=1;fillColor=#dae8fc;strokeColor=none;" vertex="1" parent="WIyWlLk6GJQsqaUBKTNV-1">
          <mxGeometry x="400" y="420" width="120" height="60" as="geometry" />
        </mxCell>
        <mxCell id="Q6_IJKQK7bqe_PZ6sxX8-8" value="" style="endArrow=none;dashed=1;html=1;dashPattern=1 3;strokeWidth=3;rounded=0;fontColor=#143642;entryX=0.5;entryY=1;entryDx=0;entryDy=0;exitX=0.5;exitY=0;exitDx=0;exitDy=0;shadow=1;fillColor=#dae8fc;strokeColor=none;" edge="1" parent="WIyWlLk6GJQsqaUBKTNV-1" source="Q6_IJKQK7bqe_PZ6sxX8-7" target="Q6_IJKQK7bqe_PZ6sxX8-5">
          <mxGeometry width="50" height="50" relative="1" as="geometry">
            <mxPoint x="630" y="400" as="sourcePoint" />
            <mxPoint x="630" y="350" as="targetPoint" />
          </mxGeometry>
        </mxCell>
        <mxCell id="Q6_IJKQK7bqe_PZ6sxX8-10" value="API调用" style="whiteSpace=wrap;html=1;rounded=1;arcSize=50;align=center;verticalAlign=middle;strokeWidth=3;autosize=1;spacing=4;treeFolding=1;treeMoving=1;newEdgeStyle={&quot;edgeStyle&quot;:&quot;entityRelationEdgeStyle&quot;,&quot;startArrow&quot;:&quot;none&quot;,&quot;endArrow&quot;:&quot;none&quot;,&quot;segment&quot;:10,&quot;curved&quot;:1,&quot;sourcePerimeterSpacing&quot;:0,&quot;targetPerimeterSpacing&quot;:0};shadow=1;fillColor=#dae8fc;strokeColor=none;" vertex="1" parent="WIyWlLk6GJQsqaUBKTNV-1">
          <mxGeometry x="555" y="170" width="90" height="30" as="geometry" />
        </mxCell>
        <mxCell id="Q6_IJKQK7bqe_PZ6sxX8-11" value="" style="edgeStyle=entityRelationEdgeStyle;startArrow=none;endArrow=none;segment=10;curved=1;sourcePerimeterSpacing=0;targetPerimeterSpacing=0;rounded=0;fontColor=#143642;strokeWidth=3;shadow=1;fillColor=#dae8fc;strokeColor=#6c8ebf;" edge="1" target="Q6_IJKQK7bqe_PZ6sxX8-10" parent="WIyWlLk6GJQsqaUBKTNV-1">
          <mxGeometry relative="1" as="geometry">
            <mxPoint x="520" y="200" as="sourcePoint" />
          </mxGeometry>
        </mxCell>
        <mxCell id="Q6_IJKQK7bqe_PZ6sxX8-13" value="" style="edgeStyle=entityRelationEdgeStyle;rounded=0;orthogonalLoop=1;jettySize=auto;html=1;startArrow=none;endArrow=none;segment=10;curved=1;sourcePerimeterSpacing=0;targetPerimeterSpacing=0;fontColor=#143642;strokeWidth=3;shadow=1;fillColor=#dae8fc;strokeColor=#6c8ebf;" edge="1" parent="WIyWlLk6GJQsqaUBKTNV-1" source="Q6_IJKQK7bqe_PZ6sxX8-12" target="Q6_IJKQK7bqe_PZ6sxX8-4">
          <mxGeometry relative="1" as="geometry" />
        </mxCell>
        <mxCell id="Q6_IJKQK7bqe_PZ6sxX8-12" value="API调用" style="whiteSpace=wrap;html=1;rounded=1;arcSize=50;align=center;verticalAlign=middle;strokeWidth=3;autosize=1;spacing=4;treeFolding=1;treeMoving=1;newEdgeStyle={&quot;edgeStyle&quot;:&quot;entityRelationEdgeStyle&quot;,&quot;startArrow&quot;:&quot;none&quot;,&quot;endArrow&quot;:&quot;none&quot;,&quot;segment&quot;:10,&quot;curved&quot;:1,&quot;sourcePerimeterSpacing&quot;:0,&quot;targetPerimeterSpacing&quot;:0};shadow=1;fillColor=#dae8fc;strokeColor=none;" vertex="1" parent="WIyWlLk6GJQsqaUBKTNV-1">
          <mxGeometry x="555" y="240" width="90" height="30" as="geometry" />
        </mxCell>
        <mxCell id="Q6_IJKQK7bqe_PZ6sxX8-15" value="" style="edgeStyle=entityRelationEdgeStyle;rounded=0;orthogonalLoop=1;jettySize=auto;html=1;startArrow=none;endArrow=none;segment=10;curved=1;sourcePerimeterSpacing=0;targetPerimeterSpacing=0;fontColor=#143642;strokeWidth=3;shadow=1;fillColor=#dae8fc;strokeColor=#6c8ebf;" edge="1" parent="WIyWlLk6GJQsqaUBKTNV-1" source="Q6_IJKQK7bqe_PZ6sxX8-14" target="Q6_IJKQK7bqe_PZ6sxX8-5">
          <mxGeometry relative="1" as="geometry" />
        </mxCell>
        <mxCell id="Q6_IJKQK7bqe_PZ6sxX8-14" value="本地化调用" style="whiteSpace=wrap;html=1;rounded=1;arcSize=50;align=center;verticalAlign=middle;strokeWidth=3;autosize=1;spacing=4;treeFolding=1;treeMoving=1;newEdgeStyle={&quot;edgeStyle&quot;:&quot;entityRelationEdgeStyle&quot;,&quot;startArrow&quot;:&quot;none&quot;,&quot;endArrow&quot;:&quot;none&quot;,&quot;segment&quot;:10,&quot;curved&quot;:1,&quot;sourcePerimeterSpacing&quot;:0,&quot;targetPerimeterSpacing&quot;:0};shadow=1;fillColor=#dae8fc;strokeColor=none;" vertex="1" parent="WIyWlLk6GJQsqaUBKTNV-1">
          <mxGeometry x="555" y="325" width="100" height="30" as="geometry" />
        </mxCell>
        <mxCell id="Q6_IJKQK7bqe_PZ6sxX8-18" value="" style="edgeStyle=entityRelationEdgeStyle;rounded=0;orthogonalLoop=1;jettySize=auto;html=1;startArrow=none;endArrow=none;segment=10;curved=1;sourcePerimeterSpacing=0;targetPerimeterSpacing=0;fontColor=#143642;entryX=1;entryY=0.5;entryDx=0;entryDy=0;strokeWidth=3;shadow=1;fillColor=#dae8fc;strokeColor=#6c8ebf;" edge="1" parent="WIyWlLk6GJQsqaUBKTNV-1" source="Q6_IJKQK7bqe_PZ6sxX8-17" target="Q6_IJKQK7bqe_PZ6sxX8-4">
          <mxGeometry relative="1" as="geometry" />
        </mxCell>
        <mxCell id="Q6_IJKQK7bqe_PZ6sxX8-17" value="本地化调用" style="whiteSpace=wrap;html=1;rounded=1;arcSize=50;align=center;verticalAlign=middle;strokeWidth=3;autosize=1;spacing=4;treeFolding=1;treeMoving=1;newEdgeStyle={&quot;edgeStyle&quot;:&quot;entityRelationEdgeStyle&quot;,&quot;startArrow&quot;:&quot;none&quot;,&quot;endArrow&quot;:&quot;none&quot;,&quot;segment&quot;:10,&quot;curved&quot;:1,&quot;sourcePerimeterSpacing&quot;:0,&quot;targetPerimeterSpacing&quot;:0};shadow=1;fillColor=#dae8fc;strokeColor=none;" vertex="1" parent="WIyWlLk6GJQsqaUBKTNV-1">
          <mxGeometry x="555" y="270" width="100" height="30" as="geometry" />
        </mxCell>
        <mxCell id="Q6_IJKQK7bqe_PZ6sxX8-20" value="" style="edgeStyle=entityRelationEdgeStyle;rounded=0;orthogonalLoop=1;jettySize=auto;html=1;startArrow=none;endArrow=none;segment=10;curved=1;sourcePerimeterSpacing=0;targetPerimeterSpacing=0;fontColor=#143642;entryX=1;entryY=0.5;entryDx=0;entryDy=0;strokeWidth=3;shadow=1;fillColor=#dae8fc;strokeColor=#6c8ebf;" edge="1" parent="WIyWlLk6GJQsqaUBKTNV-1" source="Q6_IJKQK7bqe_PZ6sxX8-19" target="Q6_IJKQK7bqe_PZ6sxX8-3">
          <mxGeometry relative="1" as="geometry" />
        </mxCell>
        <mxCell id="Q6_IJKQK7bqe_PZ6sxX8-19" value="本地化调用" style="whiteSpace=wrap;html=1;rounded=1;arcSize=50;align=center;verticalAlign=middle;strokeWidth=3;autosize=1;spacing=4;treeFolding=1;treeMoving=1;newEdgeStyle={&quot;edgeStyle&quot;:&quot;entityRelationEdgeStyle&quot;,&quot;startArrow&quot;:&quot;none&quot;,&quot;endArrow&quot;:&quot;none&quot;,&quot;segment&quot;:10,&quot;curved&quot;:1,&quot;sourcePerimeterSpacing&quot;:0,&quot;targetPerimeterSpacing&quot;:0};shadow=1;fillColor=#dae8fc;strokeColor=none;" vertex="1" parent="WIyWlLk6GJQsqaUBKTNV-1">
          <mxGeometry x="555" y="200" width="100" height="30" as="geometry" />
        </mxCell>
        <mxCell id="Q6_IJKQK7bqe_PZ6sxX8-22" value="" style="edgeStyle=entityRelationEdgeStyle;rounded=0;orthogonalLoop=1;jettySize=auto;html=1;startArrow=none;endArrow=none;segment=10;curved=1;sourcePerimeterSpacing=0;targetPerimeterSpacing=0;fontColor=#143642;strokeWidth=3;shadow=1;fillColor=#dae8fc;strokeColor=#6c8ebf;" edge="1" parent="WIyWlLk6GJQsqaUBKTNV-1" source="Q6_IJKQK7bqe_PZ6sxX8-21" target="Q6_IJKQK7bqe_PZ6sxX8-7">
          <mxGeometry relative="1" as="geometry" />
        </mxCell>
        <mxCell id="Q6_IJKQK7bqe_PZ6sxX8-21" value="API调用" style="whiteSpace=wrap;html=1;rounded=1;arcSize=50;align=center;verticalAlign=middle;strokeWidth=3;autosize=1;spacing=4;treeFolding=1;treeMoving=1;newEdgeStyle={&quot;edgeStyle&quot;:&quot;entityRelationEdgeStyle&quot;,&quot;startArrow&quot;:&quot;none&quot;,&quot;endArrow&quot;:&quot;none&quot;,&quot;segment&quot;:10,&quot;curved&quot;:1,&quot;sourcePerimeterSpacing&quot;:0,&quot;targetPerimeterSpacing&quot;:0};shadow=1;fillColor=#dae8fc;strokeColor=none;" vertex="1" parent="WIyWlLk6GJQsqaUBKTNV-1">
          <mxGeometry x="555" y="435" width="90" height="30" as="geometry" />
        </mxCell>
        <mxCell id="Q6_IJKQK7bqe_PZ6sxX8-24" value="馒头GPT" style="whiteSpace=wrap;html=1;rounded=1;strokeWidth=3;shadow=1;fillColor=#dae8fc;strokeColor=none;" vertex="1" parent="WIyWlLk6GJQsqaUBKTNV-1">
          <mxGeometry x="70" y="295" width="120" height="60" as="geometry" />
        </mxCell>
      </root>
    </mxGraphModel>
  </diagram>
  <diagram id="0EjHh1TdFf7ESWFw-lvy" name="第 2 页">
    <mxGraphModel dx="1195" dy="625" grid="1" gridSize="10" guides="1" tooltips="1" connect="1" arrows="1" fold="1" page="1" pageScale="1" pageWidth="1169" pageHeight="827" math="0" shadow="0">
      <root>
        <mxCell id="0" />
        <mxCell id="1" parent="0" />
        <mxCell id="jB2mbe5VPFW1o1fGi5t6-30" value="用户域" style="rounded=1;whiteSpace=wrap;html=1;strokeColor=none;fillColor=#dae8fc;verticalAlign=top;shadow=1;" vertex="1" parent="1">
          <mxGeometry x="587.5" y="400" width="102.5" height="130" as="geometry" />
        </mxCell>
        <mxCell id="jB2mbe5VPFW1o1fGi5t6-10" value="用户域" style="rounded=1;whiteSpace=wrap;html=1;strokeColor=none;fillColor=#dae8fc;verticalAlign=top;shadow=1;" vertex="1" parent="1">
          <mxGeometry x="485" y="250" width="200" height="130" as="geometry" />
        </mxCell>
        <mxCell id="jB2mbe5VPFW1o1fGi5t6-1" value="" style="shape=image;verticalLabelPosition=bottom;labelBackgroundColor=default;verticalAlign=top;aspect=fixed;imageAspect=0;image=data:image/png,iVBORw0KGgoAAAANSUhEUgAAAP8AAAESCAYAAAAypQMiAAAgAElEQVR4Ae2dd3wU1fbASSCVJCQhvZIAIQkhhPRGQgotofeW0GtoPlEQASsggoCFasGHdEUF648HiAUQBaQJ0ntHn73+cX6fs76Jk83eO7O7s5udmfPHfGb7ztx7vuece+6559b7/c+/gA5qA5IB/clAPep0/XU69Tn1OcoAwU+eD3l+OpUBgl+nHU/Wn6w/we8A8P/0y6/w1dFjsHHzZpj/1AKomjgRunfvAdk5OZCQkAChoWHg5eUFHh4eUL9+fahXr57hsa+vL4SEhkJiYiLkt20LPXr0NHx3wdMLYdOWLXD4yFH4+dffyLI7QB87orIl+O0sGL/+/gcc+PIgPP/CMqiorDSA6+LiYgAaoVb6cHV1haSkJMN/vbBsOXx56DDgNTiiMNI12dcbIfjtAP+ly1dg2fIV0Lt3H2gcEKA44OYqDB8fH+jatRusWLkKLly6RIrADjLgiIqN4LdRx1+8fBnQ/c7NywNnZ+c6B56lIJycnCA1NdUw3Dh/8SIpAhvJA8Gv8Yb98edfYO26ddC5rAwaNGjgsMCzFAEqqeKSEnht/XrAe3FEgaVrUm5oQJZfAYV04+YtePSxxyE8PEJ1wLMUAQ5PHp41Cy5fuUpKQAEZcUSlRfBb0bE4lp9QVQXu7u6agd5YGeC9jZ8wAc5duEBKwApZIfg10nhXr12HcePHg5ubm02gx3G4h4c7+Pk2gqDAAAgPC4WoyAiIiY6qPppERUJkeBiEhgRDQGN/8Pb2AlcbzhoISuDa9RukBDQix2T5zejIH376GZ6cOw8wWm5sIS15jpA39PSE4KBAaB4bC+ltUqC4sC2Ud2wPXTp1sOjoVFoMBXk5kJqSDHHNYiE4KAjcFVRSjRo1gnnznwJsC0e0ZnRN8mMCBL9M+N99732IiYmxGnqvhg0NFjspIR5yMzOgXX4edCwptgh0cxRESWEBpCQnQWREuCLKIC4uDv6zcxcpAJny44hKieCX6LzrN27CoMFDAK20JdYdv+Pj7Q1NY5pAZloqtM3JNhwIPVppcwBW6rPoWbTNzYbmTWMNnoel94VtMmLkSLhz71tSAhJyRPCrrIG2v/MuBIeEWAS9m6srREVEQEZqm2rgEfzCvFzoWFJUJ9CzlEd+TjZER0ZYPD2JHtHHn3xKCkBl8k2W30SH4Xh20uTJFiXneHt5QXxcc8jPzqoBPYJf2q7QqvE8C16lXu9UWgJJifEWeQOY14DTnb/98ScpARMyRZZfBY2C03cZmZlmW3tvr4aQlJBQC3iEHl38sg6lDmXteQoDhwWprZMBFZm5Q4Ju3brTMEAFco7KiCy/qKP2fPyJ2W4+RtITWsSZhB7Bb1/UzqGtvZQSwCAhTjuaowRwJeKp02fIAxDJFll+B26Mf7/2mlnz9pgK2yQqCvKyMk2Cj2P7zu1LVGPteUoA7wODg+asUcBlyF8cPEQKwIFlniz/n3/B0wsXmSXYvo0a1QrkoZUXjuIC6+bqeSDW5Xvt2uaBv5+fbC8AcwJ27f6IFICDKgDdwz9r9mzZwoyWr1lME5PBPAF8dPPrElBb/zfGA3CYI9cLwCIkpADkJ97Yc3iga/j37v9c9vw9Juekp6RUW3cBdvG5rubtbQ28qd/HPAFPDw9ZihMVAMZT7CnY9F/SCkfX8Mu1+qHBQcyxPcJfkJujmfG9KdBZr2G+Aq49kBMM9Pf3hyPHjpMCcKAhgM7hn8MVXMxgaxYbw7X2egVfUAg4DMDApxwFEBUVTZWDCH5pl8Qebtvuj/YwhRYLZSYlmp63F1x9BF9N8/cCsLY4Y2KTHAXg5+dnCLBi0VJ79DH9B5s1XVt+FIyysrJaQotFL9sktyKLb+bKQlSWchQAfqZ169aG6sIEJxtOW7eNruHfu3efYbyOrn0jHx9DRltYSAhkp6dxwcdgl1bm8JX2AlomxMtWAA0bNoRX164lD6COhgK6hf/4iROGXHvBhTfnrKeoviXKoUXzprIVAMZVHnn0MVIAdaAAdAn/9Zs3oGt5Z751FyXtiBVDh2Jtz+NbArup70SGh8tWADgMeHD6dFIAdlYAuoP/l99+hzEjR1gEPhbEMCXo9FrtqkMYCA0ODDRLAWCFIFuPc+n3/4kx6A7+uU8+YRH4uDIPp7UI9Nqgs9oE2yulVRJ4espLBsKsQdxmjAD9B1BbtoWu4N+5c6dF4NOUnnzgTSkC9ALimjWVlU2J9RFPnDxFCsAOQwDdwH/l6lXAYhXi8bvcxx0crPKOKcDU8FpOZgbI2ZcwLS2NNhgl+C1zf3AjStwIE3e5xUKTWINvxPBhFoGPK/TUAJZarrFdfi64ublKxgJwt2Jburz02xot5jFy1KhawoUZe1idRq61x8+hu1+uogo8alEAWOtAajszzAHAqkoEqWUGUE67ac7t/+DD/6sFvpB1hptgmAM/TetZN9bnKSOsZCz0C+uMSlyOENNnLFMQmoIf3f2UlBSmUGE0WS78GN3nCS+9Z71iiI1pwuwrVAjoHXxz5iwpABuN/zUF/7oNGySFSS78lL5rPdxSCrJzh1Lw9PTk9tnESZMIfoKf79qg1U9MTOQKEiadyIG/uCCfrL6Zi3qkQGe9j/sasNx+fB2n/mhTEL7sWzrs0Yzl3/rWW1whwhzyjDb8SjyCYujcXj1ltllQqel1X99G3L5btfpFsv42sP6agb+gsJArQLhaT4Cbd6apPdu7+8aKScr6F5eUEPwEv2n3Z/+BL7jZYzjNJ7lM938LeWisb3/4MQ3Yw529NwD2H26Lbql7S98zzY0mLP/gIRVcqx8RFirL6he1pbG+sVW21/NmTWO5fYj7KhDEpiG2tF1UD//tu/e4EWMc62eJdsflufy0Tt/+Vl9QLgV5uVz4hw0fTvAr7PqrHv4VK1dxhSYkKEiW1cesM0EQ6Wx/JYCuv7u7G7MvcSdgSy0cfc+0x6B6+HNy+RZDqhaf4Am0Lyok+O00vcdSrpER7AIg6MHdvH2HFICC1l/V8J/85jQ30Ie7zApwS52pCq/9rb2xEkhO4udp/GfnLoKf4P/bjcE99ngJIs1jY2XBj3vQGQuiXp+XFhVCblYm5GVngr29ISyMyuvPxUuWEvwE/9/w8+b20U3MzkiXBb/eF/DgeLt1Ukvw8faqBZ+3t5fhPfyMrRUiel/YbywFQKm+psfulsY0VOv237h1m7ss1M/XVxb4OBzQs8vfvrgdBDT2ZwIngNjY3x9wey5bKwAPD/Z8f69evcnyk+X/C3DeVxBMU2fZLn++fqP8+TlZ3OQa43bFJdG2VpT+fr7Mfs3Kzib4Cf6/YPSYMUwhQaHNTG0jy/KXtNNnRd7WrZJkb7MtVgLNm8ba1PqHhYYw+zU6OprgJ/j/gvh49s4wuHW0VHRfeL9TSbFNhdnWbrK5v4+JTJHhYUzAxKCbeow1EWwZII2OimReW+OAAIJf7/BjnjcvMBQaHCwbfnsEsswF1FafxwKaqBhNQW3Oa76NbOf+xzaJZl6fl5cXwa93+KWW77Zo1lQW/HrJ6kNrHxMtbxttuUqgSVSkTTwmHFawrgEX+Fga2abv1Z4pUGW0/9HHHmcKCApOekprWfBrffkuejW4aYabq3S1XDFwvfObQ1KTAG4b4+dbNG+muALA3xRfi/Fj2tq7NsSWKjZVwt+7dx+mgOCYND87Sxb89k5isZU7b+p3szPSAN1zY3h4z52dnGDW4Gy4t3UC7FjQB/A57/P4HnoUSs4AxMc15/7nDz/9TNZfIddflfBjLX6WUHo1bCgLfAz4ddRgsA/H9Tgnz2of1uuNfdzhjTnd4Ns3q6qPMeXJsn4HtzcvVGjKlOBXzrJLeQSqg/+3P/4ENzf26q/AgMay4VfSYpmyvvZ6De8jJbmV2ZZeUATtWkfC8ReHVkMvKIAbm8dBavMgWQoAfys8NBQwRdea+yb4CX6ma4cbOQhCa+qMW0ML03hSZ7VH+tHaNouN4SpDU20kvObu2gDmj2wLd7dOqAW+oACOrqqEwEbmzRBgRd6oiHBISoiHrPQ0szIDCX6Cnwn/p5/t5cKPMEhBj+/jbjzWWKi6+i7OUCAgPj7e3HYQAGed0+OCYf9zg5jQC/Dj+dMlA8Dfm512y/oP4XWclg0PC5W1UIjgJ/iZ8L/x5ptcoU9s0UIW/GrZlKOksADatG4F0ZERwMt7F0CTOuPY/tkJRVxrLwZfeLznmX4Q6GueB2B8LVinT6osOsFP8DPhf3XtWi78uDpNjuUvMmNHnpLCtpCemgJJifGGraZxu2kUUpxGy8lIh+LCtmDtEKJDcZFhvNymdbLBlQ8OCjQr794YNOPnDeo7wYhOSXB+7UhZ1l6AXnw+tnootG4ayG1/4/81fo7BQV5bEfwEPxP+ZctXcIVP/hw/v1gnrmmPjowEd05VWWPBxvl0XBaLq+SwfFhEWBhERUYApqzilBiesVoNusC4gQiuPPRq6AkN6tfn3pPx/5jz3NnZCfoWxMGXywZbDL1YAVzbOBZwFsDJqZ7F14yKlDVsIvgJfib8Cxc9wxU6ucU6WQk+WEO+kZXjaXPgtNVn6zs7Qc+8ZrDv2YGKQC9WAPj4Pwv6QH4Su+wW775QIRL89oOcNeWnuqk+3LedJ1i5mRmy3H505cUCiGNrnCbk/bYa3vPzcoPJPVPh6OpKm0BvrAQ+mNcLumTHgpuLfO8lKCCgRtuL+4Esv/2Ugurgf+LJuVxA87IyZcL/z1Je3C7apUED7u86MvjoguckhsLzE4sB3XJjQO3x/OK60bBiSilUtk+EVjEB3OxAHBaJgRc/JvgJfqbbL5XXLze1V1jHn9ySXzTSUaFH4NPiguGRihyTCTr2AJ73H1nxoUxlSvDbD3CWy4+vq87yz57zCFOoEFQ5kX78DMKPMwOOCrep6wr284Qeec1g2aQS+GbNiDqx8Dzgxe8R/I4BOMH/v334xIoB6/nzagKYgs+er/k0dIXshFDD9NzS8UWGhJx7W//JuxeD5oiP8dpZ7UWW3zEUg6YsP8IsBpz1GOfmXWUuc3Vp4Azl6U1g6ai2cHDZELi1ZTwghDhf/sni/rBuRhnMG5lvCLINLIqH0tQowOy5hCh/CA/wArTWGITzbegGvl5uhufRwT4QH+kPOQmhUJYVAxWlifBg/wx4YVIJbHu8B+B8Oq6sc0So5V4Twe8YgJPlN7L8OAfPskri13vlNIW9C/rA+dWVhuPeG+oGUi64SnyO4Cf4mYE7nkbivWftmD+1tfQyVXfX+vD82MJq6Al+84cbOYnsOoHk9juGYtCU249WWyraHxTIr1CD89UbpnWsBT4qALL88pUAwe8YgPMMqa7gxx18pIJ8Tw/LNQk+wS8ffBw25JLlV9zr5YFsyXu6gh8X5IjH9MaP8xPDmOAT/GbC35LcfkuAtOd3dAW/VPruhmkdCH5RGS9rAn95BD9ZfqU1mVTAz9SYH1N+czIywJ1T/qtJkDecW/V3VF8I8Bmf1T79Zg3M5n43ryV70U9jPz/o1L7EZOFPSu+1X6xAc5YfF/YkxDWHkOAgaOjpCfWdnbmuvuD6Dy6M41p9cvvNc/vlrvhzd3eDwMaNDWXAhSpFQp+YOlP1XuWUg+bgx40dTAmN1GuPDcoi+BVy+dFLkAu/cb80kFhgRfAT/BYBbixo4ufLx7cj+BWEv62Fa/3FfWLqMcFP8CsO/4sTi6XhV3nKrbnjdms+37YVe8xvCmq5rxH8OoZ/ziOPKg4+Ct7qqiKCX0HLX9Aqwib9RPDrGH6paL9cC2L8udVk+RVdSETwKwep0jNmwu9pLuBnDLXc5wS/edF8qSFBQTJZfgEyRz2rDn5z3P6gRh7QNSMGpnZLgWElCVw3lNx+ZeEv5MAfE+wDD/RMhVHtEyEzLhiw2KhcJU1uv3Ieherg79u3n6SghPk3hGXjCuHMyiHV4/htD5dzv0fw2w/+vITQ6n7B/InPFvSGocXx3Lp/gnI48OVBh8+cc1RLb3xdqoL/8pWrkkU42rUKh+PPD6ohXChgisBP6/llxwVw808BWOOzMfxCJuXaqe3B041fSHXkqFEEvx636F6xchVToFDA2sQGwjfL/7H2glAR/MpadanxPr7Pc/tZ8GM/rZlcwu3jgMBAwJ2aja0YPTd/OKAqyz9w4CCuYGyf1aWWxRcUgBKW/y5ZftmWnxfw48GP/VWWHs3t50NfHSH4FbD+qoI/PT2dKRTxEX5M8JWy/AS/fA+CN9UnBf+LVUXMfkYPb/PrrxP8eoM/MjKKKRTlqVFw8rkBcG5VhUklIGn55czzk+WXbfl5GX4s+M+uHAJfP9sfdszmB2eff2EZwa83+GNiYpjwl6VGwdFFfeDYM33h1PMDAQVJcPllWX6CXzbYcsb8vIU9YvhRWZ9eNgi+Xtrf0H/YhztmlTH7GS3/8hUrCX69wZ+WlsYUiuYhjaqFBwUIj+OL+xqECj2CNx7oyPwuCpSsJB+y/LIVBA/+7LhgOLGkHxxb3LdWn2G/PT8yj9tXGzdvJvj1Bv+QikquUGyYUmxSmFCgNk7lR5HlwH/3jfGyhV+OddTyZ3jFPLKaBzH7CfuqNJm/KOjo8RMEv97gX7lqNRf+lpF+8OVTPU0KljLwU91+uQorl1PGiwf/CxJWPzgkBH79/Q+CX2/wX7t+A1xcXLgKIDsuCPbN7V5LARD88iP1cgHnfY5XvZcF//JR+eDhyi/GMnrMGAJfAfAxL0JVU314wYMGD+HCj+P34EYe8NTgTDi0oFe1EiD47Qs/r26/Mfzvz+wM/XJiAXcexv5jHc7OznD4yFGCX6/wHzvxNbhxCnGKBcffyw3aJ4fDmNIEGJDHL9tNY35llQNvu67IAC+o6tQSBrdtBq2j/SWhF/oU13VQJp/5mXysNlOd5ccbscWa/lUyinlQwE++gshoEcK04ALM5pz9/Pzg0uUrBL9CVh85UiX8v/z2O3ToyJ+6M0ew8LPLx9Xem0+cJ4CPCX758CfH8LdFM6d/sCjrtu3vEPgKgq9a+PHCb9+9B9k5OYpZl+dGF9RICjIGn+CXDz4GAuMi/BTpGwR/1eoXCXyFwVc1/Hjx9777L3Tp0lURIVs8Il8a/tdpnp8X4Re/Fx3kY3W/eHt7w4ZNmwh8G4CvevjxBvBYsvRZaNSokVXC9sRg6br9d7YQ/GLAeY/9vd2t6o/cvDw4/vVJAt9G4GsGfrwRzAGYMnUq+Pv7WyR09/dIkbT8tzePoww/GRV+77wxQVZVHlPj/sysLKD0XeUi+oKBNHVWZcDP1I0Ir/33hx8NSz4xGQTXAmCU2JSQGb9W0a6FJPy3No4h+GXAf+bVEbLaHHfnadKkiSF4++TceXDw8Fdk6W1o6QVGhLPm4BduTHzGyi/f//gTxMXFMYWytHWkJPw31o8m+GXAv+cZfp3FZctXwI8//0Kg2xF0MQ/CY13AL9xsp86dmfA3C20kCf/V10YS/DLgf+n+Dsx2Ro9r567dBH4dg49M6Ar+CVVVTKF0aeDMrP8nTPtdXjOc4JcB//T+mcx2RvgvXLpE8BP89glsCJb/hWXLuUL5zmx2DUBUABdeGkrwy4C/fSq7Bh8GZIX+oLN95d+4vXVl+ffu/5wL/xODsyVdf6rjx0/2ubd1AvhxpvmKiosJfgew+qgIdAU/7vbi6urKVABladGS8N/aOJasP8f6f7SIH+y7f9o0gp/grxuXB5NHjKf5hOd+Xm5wllEAVBj3X1tLQT9ecs9DA/nj/bfe3kbwE/x1A/+s2bOZ8KMS2DarnGv9L708jCw/x/KnNQ9mti/O69+59y3BT/DXDfy7dn/EFE6Ef2ynJC786AHcoRx/kwrwq5UV3LX5uBDLOOhEz+uGA92N+fGGcTlwYFAQUwHgJp9Srj8l+5gO+k3vn8FsV1Ss8+Y/RfA7iNXXJfx407jZozDON3Xe+EBHrvW/9Aq5/sbj/rtbJ0BUkDezXZ2cnODkN6cJfoK/7lwdhP+DD/+PKaSoDLpkNOHCb3D9t9AiH7EC2DCTv8sObrWGbU+H47SBrqb6BMHDXH/e7j/1nZ3g4/m9uArgKkX9a4z7s+JDuQqVtthyHOgFDnQJP978Y48/wRXW4aUJXPjPv1gJ92gHH4MCeG9uT25benp6GiovCUJHZ8dQBLqF/8rVa+Duzi44gfXj9y7ow1UA19eNqmH9xG6wXh7f21oFvK25cBg1ZuxYcvcdcMijW/jR+owaPZprsXrlNOXCf+HFobq3/muns1dKIvhYg+/EyVMEP8HvGO6O4HaiUKJwmor442vOTvXgnVn8xT56tv43N4+D2FB++bTevfsQ+A4IPjKga8uPDTB02DAm/KgAWkU3htMram73LaT6Gs4vVsJdnSb93N83ndt2qFiPHDtO8BP8jmX1Bet//uJF8PDw4ArxvyTq+115dYTuxv7/WdAHGtR35rZbRWUlge+g4JPl/1/HPDh9OleIXeo7g9Ra/1ub9FPf7/L60RATwnf3sez2xcuXCX6C3zGtvmD9segnFpJkjf3xddxf7uDi/swAIBb60MNaf1yv3z2Xv+8httf8pxYQ+A4MPll+UefgUlMe/PhefmIonFlZwVQAenD/Zw3Olmyn5ORk+OmXXwl+kXwJhsaRzroP+Ik7Y0hFpaRgDy5sAec4a/61vOjnlWkduav2UEFisZQvDh4i8B0cfLL8Rh1099vvJN1/FPBxEst+tbi5x1uPdgc3F/a0qOA1YeakWKHSY8cd8pLlN1IAn3z6Gbi5uUl6AJO7JDPdf0z+0dKa/+1P9ABPtwaSbYI7J//6+x8Ev5FMOaoCJPhNdBQuQhEsGe9cWRwPZxkxgIsYANTA/P+mh7vIAj8qKhpu3LxF4JuQJ4JfRY2CnTVi5EhZCqA8PRq+fmGQSS/g4svD4O4b6t3cc8n4doArHHkKEN/z8fGBA18eJPBVJuNk+RkdhhV/OpeVSQo+Cn98hB/sfrInWwGozAPAIcu/eqfJunesy7f9nXcJfIYcOarVx+si+Dmd9u1/v4eMTH41WsEqenu4wrJxhaYVwEvqiQEcf3Eo5CaGyQLf2dkZXlmzhsDnyBDBr9LGwY67ffceZGTwa9MJCgDPWPv/i2f61VICGAS8tcmxa/7jCr3GPvxUZ+FeEfzlK1YS+CqWbbL8MjrPoABkegAIB9b/n1uRA2dW1l4Q5Ih5AEdWVULHdH6GowA9ntHVX7lqNYEvQ3bI8qu8kbAD7333X+Dt8iuGQ3gcF+YLL08qgXOrKmt4ApgJ6AipwBfXjQasuCtnGk+4JyyAsvn11wl8Dcg0WX4zOvHnX3+TLAAiQCI+J0U3hufHFNRIDca1AHW1GOjSutHw8KAs8PWSzmcQ30dQcDB8tOdjAt8MmSHLr5HGEjoS8wDkJAKJwcHHuDjoX91T4NOneld7Alf+PcJu+QAfL+4Pwzq0hIbuLrICeuLrT01NhXMXLhD4GpJlsvwWduZn+/ZDdDR7K2oxOMaPsUJQbnwIPDIgE/bM6wVYDBQrAuGKOaVr/+17diDMHJgFybEBZgOP14319idUVcH3P/5E4FsoK4LRcLQzwW9Fh+K+c8OGDzcAYgy4Oc+bhTaCAW2bw9PD82DPwr5wy8I9AW5sHgefLhkAi8e3g/7tWkBUkI9FwAvXHhwSAm++9TZBb4WMOBrw4ush+BXo2Le3bZe1IEiASurcwNnJUCyjpE0UDC5JgKruKYYx+rwR+SAcc4bkwMTuKTCgKB5K20RBkxAfcJaRjSf13/g+WntUajdv3yHwFZAPMXCO9JjgV6hzsSDI7DmPANaolwOYI3/m/mnTCHqF5MKRYDe+FoJf4U6eMnWq6uF/5NHHCH6F5cIYPEd4TvAr3MlT77uP4Fe4TR0BFC1eA8GvsKCqAX6plXpk+R23AIeSSojgtyP8rg2cYUBeUwhuJC9/Xsm4gJNTPUhtGgiz+2fA/qf7cL0Tgp/gp3GfBYqBZ/kxjfbooj5wZGFv2DClBCZ1bglt40PMSq81RyGEN24I3bNiYOHwPDiw6J/FRrgJCe93CH6Cn+C3EfyoAMTHoQW9YMu/SuGJAelQ2S4OSlpHAK4L8PaQzsTDaUGEPKN5EPTIioUHerWBVyaXwOcL+1ZnEdbYYWh1pWEHIoJfH4Dzhgnk9lsAOK9BuZbf9W/LLwbf+PGJpTX3Bvhm+RADyB/N7QkfPtqt+vhkfi84tKR/jfUCxpCznpPlJ/BRhgl+B4efBbA1rxP8BD/BrzD42KDjJ0xgjqc9LLD81kDO+q4U/DMffpiGfDaQDZ7HWBfvkeVXsJOPHj8BoaHsElgervVrjPWNXX58buz2swC25nUp+Js2bQqnz54jBaCgbNQF3FL/SfBb2cHXrt+AF5Yth3ZFRYClrXiBNLXAj/eA22vn5uXBkqXPwtVr10kRWCknUiDWxfsEvwWdimW9Xnr5ZUN1XyxpxQNe/J6a4BdfN95jcUmJoWbf9Rs3SRFYIDN1AbfUfxL8MjsSgcdKteXlXSwq5IEwudvQ7cf9Az97qje8+VAZbH6wE/fYMK2jbIUlVgL4GPfiKysvN7QFVvWhw7I2wJ2hjp34Gn78+Zc6U6YEPwd+XKm3fuNG6Natu8XAi+Fxd1F+zI/TfwML4iDA291ioMXXSI/r2bUdsSYibnO2acsWu291RvAbwY+bdbz/wYeAO/biTjRKwqAk/KeWDYZhJQng7CS9o46S90C/ZTvlgHtEYNBYyl1X6n2C/3/woxs2cdIkbrTeWsFXCv6jzw2EzObBiioma++Nvq+MUvD19YU9H39iFwWga/hPnDwFD82cCbGxsXYBSQn4cWPQgpbs6USCUBkI67Id/fz84OtT39hcAegO/vMXL8L8pxZASkqK4sA3DgqBoLAI5u/iUlpc1GNqfl94TWqeH4t+1qVg0n/bR7nk5ObCb3/8aVMFoAv4b9y6bZimwukqnL9WUoB9/QMgPb8IBnabvQcAABTNSURBVI6dAhNnz4fsog7c39/zaFeL4cfdgP0psMdtXyX7tq5/a+tbbxH8lgQ4vvv+B3ht/Xro2bOXIpF6sSB4N/KF1NwC6DeqCibOnmeAHsHHo7R7P65wLh2eazH8z44u4P62+BrpsX0stC3buUuXrgS/XPhxR51t29+BQYOHgLe3t6KgeHp5Q3JmLvQZPh6qZtUEXgAfzwPGTOb+b3FSmMXw98tvxv3tVq1awZIlS+DVV181ebz22mvw5ptv0uEAbbBp0yYYPnw4tz+9vLxsOv2nercfx0UYHR03fjwEBgVxG9NcLe3u6QktUzOhR8VoqJo1t4aFFwMvflz18FzA77H+y6lePXi1qh1TAZxYUnNJrziHP60Z+/4CAgLgq6++gjNnzjCPK1euwLfffkuHA7VBRUUFU1ZQhs6cs90aC1XCj8Dv+/wATJ8xQ9F6+djYLq6u0KJVCnQdOAwmzHxSFvBi+PFxYhv+lt5YxmvH7HKTCuD4kn8q7ojBx8ctwn2ZgtK+fXsm9IJCuHbtGoHvQOCjIl6zZg2zT1Eevzx02Gauv6rg37lrNwwfMQJCQkO5DcayuqzXcUFOk+bx0KFnfxg7/TGLgBcrgL4jqySvL8TXA16bVFRLARx7hl2Bp3kYG/5OnToR/A4GthwvC4diLLnE1w98eVC/8P/6+x/w6tq1kJyczG0kXgOy3guNjIbCsu4w8v5ZVgMvhh8fRzWNk7xeLKrZKSUSXhxXAFjKS5juwzx9Y6uPzwl+7Q1ZCH6jFFshwPfh/+2ApKQkSYhYcJt63T8wGLKLOkLlpAcVB16sAAaNuw/q15e/4s/L3QU6JEfA9O4p8PqDneDkssG1FADBT/ALbChxdki3/+6330FFZaXVG2AK8Df09oGU7HxDJF4MqK0f53cot1hxoVeAhTlz4kOgS0YTGNKuBfh5uTF/j9x+dSoGsvwiy48BjpiYGKaQC0BLnV3d3A2Bt56VY7hTc7ZUADglKBX8k7oPue8T/AS/ud6AQ1l+zGiyZqPLBg1coFliKyjvVwHjZz5hU7dertKY8PBcSGidZrUyk1ICBD/Br1r4123YAOZUxRFgcHaubwiulXbvC2MefNQhgDdWDOgB5JWWgbPCqcVCG+CZ4Cf4VQk/ZuW5uEhvUCEIO0IU1TwBOvQcAKMfeMQhgTdWAPgcs//Co22zgpDgJ/hVB/+RY8dlF81A6ONap0O3YRNg2L9mqwZ6Y0XQa+hYiEtKMSQUCQrN2jPBT/CrCn4sk5WYmChrPBwYFgllQ0ZDvwkPQP+qB2ECJ7/eGDZHfT7+oSeg++AR0DozFwJCwsBJovovT0EQ/AS/quDnbW0lFvSWGbnQd/w0A/gI//D71Wv1eYpo7IzHAL2CdmU9oE1OW4hpkWioD9DIrzG4e7DXC2BbEfwEv2rgP/TVEckAH1rCrNLyaugRfDzGz5S3yIYHmhrfwwQlsVIUPyb4CX7VwN+5rIwpyAahdnKC7A5da4E/ZMpM1Y71rVU4BL86Aefl+OsuyWf/gS8ks/daZuTVAh+t/shp6onuWwu78fcJfu3Bv27dOq4R/OLgIW0t7MGy2GKX1fixf3Ao9B13v0n4xz3kGMk7xmDa4znBrz34d+zYwWTByckJrly9ph34MW9fKouvfd9Kk+Cj5edV0bEHgHX5H42DaMzPc6HV+N6dO3cAN0Y1NoD4vKi42GbgY3zA7um9a/79b5M3Ktx8eGxzJvgDJ83Q7XgflQ5WBxbayfhMAT/1egV79uyB4OCair1FixZw7sIFbcHfr19/pgCjQLfrPoAJf+XUhwn+eqYLUxL86oUfPZZLly7Bc889BzMffhjWrlsHP/z0s03BrxPLHxzCtl6eXj415vOFqT3hPHzaHIKf4Nd0KbKf7Lhxp13d/lOnz3CtfrOkNkyrjwpg9IzH9Q1/MFtxkuVXt+UX4hWahR93vDUeq4qfm0roEaw+nnF5bF0G3Or6vxsT/Jq2+qgANAv/tAce4MJfNvjv3H0x8MLjAVW2LbtV12DL+f+AYHbhUi1Zfhz/4t4DEydOhPLycigsLITS0lKorKyEhQsXwsGDBzWrBDQLP26XJbb04sdu7h7c8b6eM/sExaB1+HHfAQTcw8ODKSeCzOTk5MCWLVs0pwQ0C7+/vz+zU0OjY7nj/aEqXsIrwGvtWavw37t3D+bOnQvu7u5M+RCgNz537twZTp8+rRkloEn4pYJ9iek5XPhHOmiVHmuBNuf7ASHac/tv3boFvXv3Nht6sRKIioqCL774QhMKQJPwSwX78jr34MKv57ReQUFoDX60+H369LEKfEEJhISEwLFjx1SvADQJ/wMPPsjt5C6V47jw6zmtV4A/MCSM2YZqDPg9+eSTzPsRoDbnnJaWBrdv31a1AtAk/CWlpcyOdvPw5II/SOdpvVqE/8iRI7ICe+bAj5/F2IEwZ66mM+6j+Morr8C8efPhrbe3wS+//a6dDD//xo2Z8IdExXDh13tabzX8odqx/EOHDmXKgxh4DBK3bt1a9l4OuFux2jYk3b9/P2DcQnzfKSkpcPnKVZsqALtk+H1z5myNGxPfJD5OSMvmwj9Cx2v4BfDxHKgR+C9fviy5sjMsLAyeeeYZOHz4cPUGpLt27YIOHTpwZQnlacWKFaqx/nfv3oX4+HiT99Spc2f1w79h0yaTNycogdxO/GDfGJ2n9QoKIDA0nNmOahrzr127lnkfKBMI/nvvvQf79u2rAT9uNY7Tev378xeHdevWTTXw79y5k9kWuJ7/6rXrNlMAdrH8ksG+irFcy6/3tF4B/iCNwD958mSmwCP8ixYtMoCP8B84cKDa8iP8eBw9ehQCAwOZvxEaGqoa+DVfyYcb7HP34II/YOJ0XefzC+DjWSvwd+3alQmur68vfPbZZ9XwowI4depULQVQUVHB/A1UINevX1eFAtB8DT9rgn2U1ju/WvlpBf6ioiImuAkJCTXAR/gPHTpUC/5Zs2YxfwPhV0vWn6bhP332HLeTpIJ9at6ZR2y1lXgcFBrBbEs1jfk7duzIvI+IiIha8KMCOHHiRA0FgIt+EHLWgYuD1DDVJwW/qgt4Sgf7unPd/lGU1vuP5Q/TBvzDhw9nQoswb968uZYCwOmwkydPViuA5ORk5m94e3sDZg8S/H9xg4U2D/g9OH06s5Owo8srxnDhH+cgW20rYbmt/Y0gjcC/ePFirky0bdsW9u7da1IBYArv0qVLud/Pzc1VBfionDRt+Uvbt2d2lKtEsA/X8lNa7z9j/mCNwI9Ld3Eai+Wy4+sYFMR5fXT5xcfjjz8uufoP4wFqsPqah58X7AuObMK1+pTW+w/46DVoBX4U+vz8fC78qAAwuw9X/E2ZMgVwqIDBQJ7CwPfq168PmDpM8PNdfpsX8JQM9qVmceGvvE/f1XqNhwnBYZFM4VdTwA/B3Lp1K/NepADnvT9w4EDVgC/H8n956DB33G7u/nziz9t0zL9x82ZuB+d25Af7KK3XyPKHawd+FHzMxOOBbO57mCOAQUG1WH1Nwz99xgxu55YP4Qf7KK1X2/CfP38emjRpwpURuQrA2dkZ1q9fryrwNQ0/N9jn5s6t2UfVemuCbxjza8zyo/BjMc7ISLZHIwd+BP/ZZ59VHfiahr9xQABTqwdHRHPH+5TWWxv+kPCayz7FYKhtzI+CLxyYwJOVlcWUFfF9Gj/28/ODjRs3Vv+W8JtqOUtN9alyzH/mHD+zL74NP9hHab214Q/WoOUXIMUNK3FBT1BQkCwl0KBBA8Dg3tdff61a8PHepeA/ePgr9QX8Nm3Zwu3EnA7duJbf0rTe8TOfgJJuvaFVejZktC2GgWOnVmfIGUfP1fZcy/ALSgAX5KxevRp69OgB4eHhNfIBfHx8IC8vD+bMmWNY2Sd8R81nKfhVafmlgn1lQ9gbdOB435K03lEPzIEAozp3Tk7OUFTeSxMKQEvz/HKBvXnzJpw9exawAIjc76jpc1Lwq9Lyt+dUXHGVEewbN/NJs4FNaJNh0ttwdq4PFZMeMPv3HM0z0Ep6r5rgtPW1ahL+AE6xhSCJYJ+lab24649xQEh43rZjV/XDr5FiHrYGSk2/rzn4pYJ9Ldpkcsf7gybPsAhUAXRT54yCYot+05Gsv1bKeKkJTltfq+bglw72deXCX3nfLItANQW98FpGQYlFv+lQ8BvFM4R7w7Oap/psDZgj/74U/Ie+OqKuaP+Mhx5iut8oqLzdeNHltzStVwyD8WOC/4zqSlo7MrRKXZvm4O/AqdTi4uYmmdlnaVqvMfDi51qAX6sbdSoFkhp/R3Pw84J9jYPDoOvQ8dxj6JQZMHzqQ2YfYtiNHxP8ZPkdUTloCv6z589zXX5jKO31XAvwNw4OYbYtjfn/SRd2RMhZ1yQFv6rm+Te//jpTQO0Fuqn/0QT8QQQ/CyK1vq4p+KWCfabAtMdr2oA/mKlYyfJr0/KrKr2XF+yzB+Ss/9AC/P6BBL9aLTzruqUsv6pKdwfKXJXFgtRWr2sDfvaKN7L82rT8B748qI55fkcN9qFC0QL8fgEEP8uCqvV1KcuvGvgdNdinHfjZm1OS5dem5f/8iy/VYfkfmjmTGZBCAKeWt4LZfVKZx6P9M+DJIdkWH7whgzYsP8GvVgvPum4py7//wBfqgL9jp05M+L3cG8BXC3vD0UV9mMep5wfC+dWVFh8E/99bWAtbWRufr127psk18Syw1PC6ZuDnBfsymgYyoRcUwpnlgy0GH5UGwU/wqwF48TVKwb/v8wOOb/nPXbjAha+yME4S/rMrKwj+2bVr9wkrCyngp85xvRh248eagH/LG29w4X9qcCYX/mPP9LUKfH1Yfor2G8Oj9udS8Ksi2i8V7Ns+vSMX/hNL+hH8HKuP1p8sv/4svypy+3nBvoZu0sG+k88NIPitgL9jx47Ve9cbB/qE5xTwczzlIWX5Dx856vhj/qBgduppemwA1+pjwO+bFwYR/BLw8wp44g62p0+f5iqAq1evUrRftFmIIwwZHnvsMe5w+cTJU44N//mLF7k3UFHQXBL+Myusi/TrYczfNL4lt50nTpwIuPuNYOmNzxcvXiT4HQj+7du3A+44xJqlwu3Gv/v+B8eGf+tbbzFvAG9s/iB+sA8t/7lV1kX6tQR/v5FV0DorD7BOf0Mvb8CqxHigMLAERXjdxcUFcHML1oE72dJR923g5eUl2Ze4ByEqBzywQE6LFi2gf/8BsH7jRvj519+sVgqKbNE955FHuTey7UF+sO/YYusj/VqAf9iUGdCkeTy3LQXI6VxP1+0UGxsL773/gVUKQBH4e/ToyewIOcG+r5f2t3q8r3b4+4+ZDB4Npa0BQa9v6MX9j57BwkXPWKwAFIEftZD4osSP02QE+05amdaL4KsZfqxX6EngM2VILE/0uKbyc3JygjWvvmqRArAa/u9//Ik7Fh2Q11Qy2Hd6mfWRfjXDHysRyCOBrynw1B412wPjOxcvXzZbAVgNP5YZ4nXGjB4pkvCfXTFEt27/gDGTue3Ha1t6ryYEem6PSZMn2x/+d959jyu8y0fnS8KvRKRfrZa/TU4Bt/30LNB07/KVG84G/Pr7H2YpAKstv9Q03/rJxZLwC2N2a888YXHU9fwhEVFc+DMyMqB79+6KHL169YJ+/frRocI26Nq1K3h6enJl5cix4/aF//92/Id7QS+PL5QBv/Vz/Gq1/J5e3sz2S0tLgw8++ECxY/fu3bBv3z46VNoGs2fPZsoKGr7t77xrX/hxI0GexX28f7ok/OesXMoreAy863BUy+/q7s5sv549eyoGPiqRjz76iMBXKfiotF9++WWmrKDsv/X2NvvCj+mHON/IAq97RrQk/KetLOKhZvi9G7HTO1NTUxWFnyy/ur2eWbNmMTlD/j7+5FP7wv/7n38Z0g5Z8Lu71Iedc8q5CsDa8l1qhj+qaRyzQ1GpvvTSS4opgB07dpDlV6nl37t3L7Rq1YopKzjff+PmLfvDP278eOZFoVLARJ/P5/VgKgBM7z1nRe0+NcOfXdSB23aJiYmwbds2xRTAZ599RgpAhQpg0qRJXDnBVZ1oiM05rI7245/t3LWbe2GoAGKDfWDJsBw4/HQvk0rgGwUSfVjeB77uqGP+QePuk2y7pKQkWLNmjSIKYNeuXQS/iuDfs2cPDBs2DNCy8+Qbi+mYAz5+VhH4f/vjT65LIr5obw8XyG0RDP1yYmFkSTyM65BoOMZ3TITJXVtbdYj/x/hxWHQMZBaUOOSBK/aMr9f4Oa7ow+h/nz59YPDgwWYdKDzz5s2D999/36BAPvnkE9kKAN3N5557DsaNGwcjR46kw05tgH2GezHgCkxjWTB+jis5z5w7VzfwoxZ54803JS/S+KLpufwkDiXaCpXH22+/DR9++CF8+umnkgoAZwdycnKoX+vZt5/M7Wscdptr9RWz/MIf9+vXnwTFwQWld+/eBuuPCuDjjz/mKoAhQ4ZQfzp4f0ZFRcOtO3frHv5v//s94PSUuZqLPm8/y4KFIcSJQzgDgEoA3XvjBKDAQPYOQdRn9uszVltjQZC9+z+3CHzFLT/+4M3bd6BtAeWrszqsrl93dXWFb86cg9NnjY/zcOb8RTh74VL1IZVOWtf3ouf/x5V8mF0reN2WnBUJ+Bn/MZYYmjV7Nri5uZEX4GBuY25enmyBKSgspP5zsP5DhYfz/ebm8Rszis9tAr/wRxiBnFBVxS1SqGftbe97R6u/a/dHsuHf8/EngN+x93XS/5keUoSEhsLTCxfBT7/8KrsPBRZNnW0Kv/CHP/z0M7z73vswfcYM6NS5syEjEKcwSLBMd7LSwu/u7g55+fmw+6M9ZgsNKgAcxuFvKH1d9Hvs/sepXWQkJSUFRowcCa9v3Qo//vyL2f0nMGjqbBf4Tf0xvWZeNha1F7WX0jJA8JuZEql0B9DvEdR1JQMEP8GvqCtZV4JM/2u+EiX4CX6CX6cyQPDrtOPJUppvKbXWZgQ/wU+WX6cyQPDrtOO1ZsXofsz3ZAh+gp8sv05lgODXaceTpTTfUmqtzQh+gp8sv05lgODXacdrzYrR/ZjvyRD8BD9Zfp3KAMGv044nS2m+pdRamxH8BD9Zfp3KwP8Dmno0KwgW8kkAAAAASUVORK5CYII=;" vertex="1" parent="1">
          <mxGeometry x="310" y="290" width="65" height="69.84" as="geometry" />
        </mxCell>
        <mxCell id="jB2mbe5VPFW1o1fGi5t6-9" value="" style="edgeStyle=orthogonalEdgeStyle;rounded=0;orthogonalLoop=1;jettySize=auto;html=1;strokeColor=#7EA6E0;fontColor=#143642;fillColor=#FAE5C7;strokeWidth=3;shadow=1;" edge="1" parent="1" source="jB2mbe5VPFW1o1fGi5t6-2" target="jB2mbe5VPFW1o1fGi5t6-1">
          <mxGeometry relative="1" as="geometry" />
        </mxCell>
        <mxCell id="jB2mbe5VPFW1o1fGi5t6-2" value="馒头GPT" style="image;points=[];aspect=fixed;html=1;align=center;shadow=0;dashed=0;image=img/lib/allied_telesis/computer_and_terminals/Server_Desktop.svg;strokeColor=#0F8B8D;fontColor=#143642;fillColor=#FAE5C7;" vertex="1" parent="1">
          <mxGeometry x="420" y="298" width="42.599999999999994" height="54" as="geometry" />
        </mxCell>
        <mxCell id="jB2mbe5VPFW1o1fGi5t6-8" value="" style="edgeStyle=orthogonalEdgeStyle;rounded=0;orthogonalLoop=1;jettySize=auto;html=1;strokeColor=#7EA6E0;fontColor=#143642;fillColor=#FAE5C7;strokeWidth=3;shadow=1;" edge="1" parent="1" source="jB2mbe5VPFW1o1fGi5t6-4" target="jB2mbe5VPFW1o1fGi5t6-2">
          <mxGeometry relative="1" as="geometry" />
        </mxCell>
        <mxCell id="jB2mbe5VPFW1o1fGi5t6-4" value="索引服务" style="image;points=[];aspect=fixed;html=1;align=center;shadow=0;dashed=0;image=img/lib/allied_telesis/computer_and_terminals/Server_Desktop.svg;strokeColor=#0F8B8D;fontColor=#143642;fillColor=#FAE5C7;" vertex="1" parent="1">
          <mxGeometry x="510" y="297.92" width="42.599999999999994" height="54" as="geometry" />
        </mxCell>
        <mxCell id="jB2mbe5VPFW1o1fGi5t6-7" value="" style="edgeStyle=orthogonalEdgeStyle;rounded=0;orthogonalLoop=1;jettySize=auto;html=1;strokeColor=#7EA6E0;fontColor=#143642;fillColor=#FAE5C7;strokeWidth=3;shadow=1;" edge="1" parent="1" source="jB2mbe5VPFW1o1fGi5t6-6" target="jB2mbe5VPFW1o1fGi5t6-4">
          <mxGeometry relative="1" as="geometry" />
        </mxCell>
        <mxCell id="jB2mbe5VPFW1o1fGi5t6-6" value="数据库" style="shape=cylinder3;whiteSpace=wrap;html=1;boundedLbl=1;backgroundOutline=1;size=15;strokeColor=#7EA6E0;fillColor=#d5e8d4;strokeWidth=3;shadow=1;" vertex="1" parent="1">
          <mxGeometry x="600" y="285" width="60" height="80" as="geometry" />
        </mxCell>
        <mxCell id="jB2mbe5VPFW1o1fGi5t6-11" value="私域部署" style="text;html=1;strokeColor=#7EA6E0;fillColor=none;align=center;verticalAlign=middle;whiteSpace=wrap;rounded=1;shadow=1;" vertex="1" parent="1">
          <mxGeometry x="230" y="309.92" width="60" height="30" as="geometry" />
        </mxCell>
        <mxCell id="jB2mbe5VPFW1o1fGi5t6-12" value="馒头域" style="rounded=1;whiteSpace=wrap;html=1;strokeColor=#d6b656;fillColor=#fff2cc;verticalAlign=top;shadow=1;" vertex="1" parent="1">
          <mxGeometry x="485" y="400" width="85" height="130" as="geometry" />
        </mxCell>
        <mxCell id="jB2mbe5VPFW1o1fGi5t6-13" value="" style="shape=image;verticalLabelPosition=bottom;labelBackgroundColor=default;verticalAlign=top;aspect=fixed;imageAspect=0;image=data:image/png,iVBORw0KGgoAAAANSUhEUgAAAP8AAAESCAYAAAAypQMiAAAgAElEQVR4Ae2dd3wU1fbASSCVJCQhvZIAIQkhhPRGQgotofeW0GtoPlEQASsggoCFasGHdEUF648HiAUQBaQJ0ntHn73+cX6fs76Jk83eO7O7s5udmfPHfGb7ztx7vuece+6559b7/c+/gA5qA5IB/clAPep0/XU69Tn1OcoAwU+eD3l+OpUBgl+nHU/Wn6w/we8A8P/0y6/w1dFjsHHzZpj/1AKomjgRunfvAdk5OZCQkAChoWHg5eUFHh4eUL9+fahXr57hsa+vL4SEhkJiYiLkt20LPXr0NHx3wdMLYdOWLXD4yFH4+dffyLI7QB87orIl+O0sGL/+/gcc+PIgPP/CMqiorDSA6+LiYgAaoVb6cHV1haSkJMN/vbBsOXx56DDgNTiiMNI12dcbIfjtAP+ly1dg2fIV0Lt3H2gcEKA44OYqDB8fH+jatRusWLkKLly6RIrADjLgiIqN4LdRx1+8fBnQ/c7NywNnZ+c6B56lIJycnCA1NdUw3Dh/8SIpAhvJA8Gv8Yb98edfYO26ddC5rAwaNGjgsMCzFAEqqeKSEnht/XrAe3FEgaVrUm5oQJZfAYV04+YtePSxxyE8PEJ1wLMUAQ5PHp41Cy5fuUpKQAEZcUSlRfBb0bE4lp9QVQXu7u6agd5YGeC9jZ8wAc5duEBKwApZIfg10nhXr12HcePHg5ubm02gx3G4h4c7+Pk2gqDAAAgPC4WoyAiIiY6qPppERUJkeBiEhgRDQGN/8Pb2AlcbzhoISuDa9RukBDQix2T5zejIH376GZ6cOw8wWm5sIS15jpA39PSE4KBAaB4bC+ltUqC4sC2Ud2wPXTp1sOjoVFoMBXk5kJqSDHHNYiE4KAjcFVRSjRo1gnnznwJsC0e0ZnRN8mMCBL9M+N99732IiYmxGnqvhg0NFjspIR5yMzOgXX4edCwptgh0cxRESWEBpCQnQWREuCLKIC4uDv6zcxcpAJny44hKieCX6LzrN27CoMFDAK20JdYdv+Pj7Q1NY5pAZloqtM3JNhwIPVppcwBW6rPoWbTNzYbmTWMNnoel94VtMmLkSLhz71tSAhJyRPCrrIG2v/MuBIeEWAS9m6srREVEQEZqm2rgEfzCvFzoWFJUJ9CzlEd+TjZER0ZYPD2JHtHHn3xKCkBl8k2W30SH4Xh20uTJFiXneHt5QXxcc8jPzqoBPYJf2q7QqvE8C16lXu9UWgJJifEWeQOY14DTnb/98ScpARMyRZZfBY2C03cZmZlmW3tvr4aQlJBQC3iEHl38sg6lDmXteQoDhwWprZMBFZm5Q4Ju3brTMEAFco7KiCy/qKP2fPyJ2W4+RtITWsSZhB7Bb1/UzqGtvZQSwCAhTjuaowRwJeKp02fIAxDJFll+B26Mf7/2mlnz9pgK2yQqCvKyMk2Cj2P7zu1LVGPteUoA7wODg+asUcBlyF8cPEQKwIFlniz/n3/B0wsXmSXYvo0a1QrkoZUXjuIC6+bqeSDW5Xvt2uaBv5+fbC8AcwJ27f6IFICDKgDdwz9r9mzZwoyWr1lME5PBPAF8dPPrElBb/zfGA3CYI9cLwCIkpADkJ97Yc3iga/j37v9c9vw9Juekp6RUW3cBdvG5rubtbQ28qd/HPAFPDw9ZihMVAMZT7CnY9F/SCkfX8Mu1+qHBQcyxPcJfkJujmfG9KdBZr2G+Aq49kBMM9Pf3hyPHjpMCcKAhgM7hn8MVXMxgaxYbw7X2egVfUAg4DMDApxwFEBUVTZWDCH5pl8Qebtvuj/YwhRYLZSYlmp63F1x9BF9N8/cCsLY4Y2KTHAXg5+dnCLBi0VJ79DH9B5s1XVt+FIyysrJaQotFL9sktyKLb+bKQlSWchQAfqZ169aG6sIEJxtOW7eNruHfu3efYbyOrn0jHx9DRltYSAhkp6dxwcdgl1bm8JX2AlomxMtWAA0bNoRX164lD6COhgK6hf/4iROGXHvBhTfnrKeoviXKoUXzprIVAMZVHnn0MVIAdaAAdAn/9Zs3oGt5Z751FyXtiBVDh2Jtz+NbArup70SGh8tWADgMeHD6dFIAdlYAuoP/l99+hzEjR1gEPhbEMCXo9FrtqkMYCA0ODDRLAWCFIFuPc+n3/4kx6A7+uU8+YRH4uDIPp7UI9Nqgs9oE2yulVRJ4espLBsKsQdxmjAD9B1BbtoWu4N+5c6dF4NOUnnzgTSkC9ALimjWVlU2J9RFPnDxFCsAOQwDdwH/l6lXAYhXi8bvcxx0crPKOKcDU8FpOZgbI2ZcwLS2NNhgl+C1zf3AjStwIE3e5xUKTWINvxPBhFoGPK/TUAJZarrFdfi64ublKxgJwt2Jburz02xot5jFy1KhawoUZe1idRq61x8+hu1+uogo8alEAWOtAajszzAHAqkoEqWUGUE67ac7t/+DD/6sFvpB1hptgmAM/TetZN9bnKSOsZCz0C+uMSlyOENNnLFMQmoIf3f2UlBSmUGE0WS78GN3nCS+9Z71iiI1pwuwrVAjoHXxz5iwpABuN/zUF/7oNGySFSS78lL5rPdxSCrJzh1Lw9PTk9tnESZMIfoKf79qg1U9MTOQKEiadyIG/uCCfrL6Zi3qkQGe9j/sasNx+fB2n/mhTEL7sWzrs0Yzl3/rWW1whwhzyjDb8SjyCYujcXj1ltllQqel1X99G3L5btfpFsv42sP6agb+gsJArQLhaT4Cbd6apPdu7+8aKScr6F5eUEPwEv2n3Z/+BL7jZYzjNJ7lM938LeWisb3/4MQ3Yw529NwD2H26Lbql7S98zzY0mLP/gIRVcqx8RFirL6he1pbG+sVW21/NmTWO5fYj7KhDEpiG2tF1UD//tu/e4EWMc62eJdsflufy0Tt/+Vl9QLgV5uVz4hw0fTvAr7PqrHv4VK1dxhSYkKEiW1cesM0EQ6Wx/JYCuv7u7G7MvcSdgSy0cfc+0x6B6+HNy+RZDqhaf4Am0Lyok+O00vcdSrpER7AIg6MHdvH2HFICC1l/V8J/85jQ30Ie7zApwS52pCq/9rb2xEkhO4udp/GfnLoKf4P/bjcE99ngJIs1jY2XBj3vQGQuiXp+XFhVCblYm5GVngr29ISyMyuvPxUuWEvwE/9/w8+b20U3MzkiXBb/eF/DgeLt1Ukvw8faqBZ+3t5fhPfyMrRUiel/YbywFQKm+psfulsY0VOv237h1m7ss1M/XVxb4OBzQs8vfvrgdBDT2ZwIngNjY3x9wey5bKwAPD/Z8f69evcnyk+X/C3DeVxBMU2fZLn++fqP8+TlZ3OQa43bFJdG2VpT+fr7Mfs3Kzib4Cf6/YPSYMUwhQaHNTG0jy/KXtNNnRd7WrZJkb7MtVgLNm8ba1PqHhYYw+zU6OprgJ/j/gvh49s4wuHW0VHRfeL9TSbFNhdnWbrK5v4+JTJHhYUzAxKCbeow1EWwZII2OimReW+OAAIJf7/BjnjcvMBQaHCwbfnsEsswF1FafxwKaqBhNQW3Oa76NbOf+xzaJZl6fl5cXwa93+KWW77Zo1lQW/HrJ6kNrHxMtbxttuUqgSVSkTTwmHFawrgEX+Fga2abv1Z4pUGW0/9HHHmcKCApOekprWfBrffkuejW4aYabq3S1XDFwvfObQ1KTAG4b4+dbNG+muALA3xRfi/Fj2tq7NsSWKjZVwt+7dx+mgOCYND87Sxb89k5isZU7b+p3szPSAN1zY3h4z52dnGDW4Gy4t3UC7FjQB/A57/P4HnoUSs4AxMc15/7nDz/9TNZfIddflfBjLX6WUHo1bCgLfAz4ddRgsA/H9Tgnz2of1uuNfdzhjTnd4Ns3q6qPMeXJsn4HtzcvVGjKlOBXzrJLeQSqg/+3P/4ENzf26q/AgMay4VfSYpmyvvZ6De8jJbmV2ZZeUATtWkfC8ReHVkMvKIAbm8dBavMgWQoAfys8NBQwRdea+yb4CX6ma4cbOQhCa+qMW0ML03hSZ7VH+tHaNouN4SpDU20kvObu2gDmj2wLd7dOqAW+oACOrqqEwEbmzRBgRd6oiHBISoiHrPQ0szIDCX6Cnwn/p5/t5cKPMEhBj+/jbjzWWKi6+i7OUCAgPj7e3HYQAGed0+OCYf9zg5jQC/Dj+dMlA8Dfm512y/oP4XWclg0PC5W1UIjgJ/iZ8L/x5ptcoU9s0UIW/GrZlKOksADatG4F0ZERwMt7F0CTOuPY/tkJRVxrLwZfeLznmX4Q6GueB2B8LVinT6osOsFP8DPhf3XtWi78uDpNjuUvMmNHnpLCtpCemgJJifGGraZxu2kUUpxGy8lIh+LCtmDtEKJDcZFhvNymdbLBlQ8OCjQr794YNOPnDeo7wYhOSXB+7UhZ1l6AXnw+tnootG4ayG1/4/81fo7BQV5bEfwEPxP+ZctXcIVP/hw/v1gnrmmPjowEd05VWWPBxvl0XBaLq+SwfFhEWBhERUYApqzilBiesVoNusC4gQiuPPRq6AkN6tfn3pPx/5jz3NnZCfoWxMGXywZbDL1YAVzbOBZwFsDJqZ7F14yKlDVsIvgJfib8Cxc9wxU6ucU6WQk+WEO+kZXjaXPgtNVn6zs7Qc+8ZrDv2YGKQC9WAPj4Pwv6QH4Su+wW775QIRL89oOcNeWnuqk+3LedJ1i5mRmy3H505cUCiGNrnCbk/bYa3vPzcoPJPVPh6OpKm0BvrAQ+mNcLumTHgpuLfO8lKCCgRtuL+4Esv/2Ugurgf+LJuVxA87IyZcL/z1Je3C7apUED7u86MvjoguckhsLzE4sB3XJjQO3x/OK60bBiSilUtk+EVjEB3OxAHBaJgRc/JvgJfqbbL5XXLze1V1jHn9ySXzTSUaFH4NPiguGRihyTCTr2AJ73H1nxoUxlSvDbD3CWy4+vq87yz57zCFOoEFQ5kX78DMKPMwOOCrep6wr284Qeec1g2aQS+GbNiDqx8Dzgxe8R/I4BOMH/v334xIoB6/nzagKYgs+er/k0dIXshFDD9NzS8UWGhJx7W//JuxeD5oiP8dpZ7UWW3zEUg6YsP8IsBpz1GOfmXWUuc3Vp4Azl6U1g6ai2cHDZELi1ZTwghDhf/sni/rBuRhnMG5lvCLINLIqH0tQowOy5hCh/CA/wArTWGITzbegGvl5uhufRwT4QH+kPOQmhUJYVAxWlifBg/wx4YVIJbHu8B+B8Oq6sc0So5V4Twe8YgJPlN7L8OAfPskri13vlNIW9C/rA+dWVhuPeG+oGUi64SnyO4Cf4mYE7nkbivWftmD+1tfQyVXfX+vD82MJq6Al+84cbOYnsOoHk9juGYtCU249WWyraHxTIr1CD89UbpnWsBT4qALL88pUAwe8YgPMMqa7gxx18pIJ8Tw/LNQk+wS8ffBw25JLlV9zr5YFsyXu6gh8X5IjH9MaP8xPDmOAT/GbC35LcfkuAtOd3dAW/VPruhmkdCH5RGS9rAn95BD9ZfqU1mVTAz9SYH1N+czIywJ1T/qtJkDecW/V3VF8I8Bmf1T79Zg3M5n43ryV70U9jPz/o1L7EZOFPSu+1X6xAc5YfF/YkxDWHkOAgaOjpCfWdnbmuvuD6Dy6M41p9cvvNc/vlrvhzd3eDwMaNDWXAhSpFQp+YOlP1XuWUg+bgx40dTAmN1GuPDcoi+BVy+dFLkAu/cb80kFhgRfAT/BYBbixo4ufLx7cj+BWEv62Fa/3FfWLqMcFP8CsO/4sTi6XhV3nKrbnjdms+37YVe8xvCmq5rxH8OoZ/ziOPKg4+Ct7qqiKCX0HLX9Aqwib9RPDrGH6paL9cC2L8udVk+RVdSETwKwep0jNmwu9pLuBnDLXc5wS/edF8qSFBQTJZfgEyRz2rDn5z3P6gRh7QNSMGpnZLgWElCVw3lNx+ZeEv5MAfE+wDD/RMhVHtEyEzLhiw2KhcJU1uv3Ieherg79u3n6SghPk3hGXjCuHMyiHV4/htD5dzv0fw2w/+vITQ6n7B/InPFvSGocXx3Lp/gnI48OVBh8+cc1RLb3xdqoL/8pWrkkU42rUKh+PPD6ohXChgisBP6/llxwVw808BWOOzMfxCJuXaqe3B041fSHXkqFEEvx636F6xchVToFDA2sQGwjfL/7H2glAR/MpadanxPr7Pc/tZ8GM/rZlcwu3jgMBAwJ2aja0YPTd/OKAqyz9w4CCuYGyf1aWWxRcUgBKW/y5ZftmWnxfw48GP/VWWHs3t50NfHSH4FbD+qoI/PT2dKRTxEX5M8JWy/AS/fA+CN9UnBf+LVUXMfkYPb/PrrxP8eoM/MjKKKRTlqVFw8rkBcG5VhUklIGn55czzk+WXbfl5GX4s+M+uHAJfP9sfdszmB2eff2EZwa83+GNiYpjwl6VGwdFFfeDYM33h1PMDAQVJcPllWX6CXzbYcsb8vIU9YvhRWZ9eNgi+Xtrf0H/YhztmlTH7GS3/8hUrCX69wZ+WlsYUiuYhjaqFBwUIj+OL+xqECj2CNx7oyPwuCpSsJB+y/LIVBA/+7LhgOLGkHxxb3LdWn2G/PT8yj9tXGzdvJvj1Bv+QikquUGyYUmxSmFCgNk7lR5HlwH/3jfGyhV+OddTyZ3jFPLKaBzH7CfuqNJm/KOjo8RMEv97gX7lqNRf+lpF+8OVTPU0KljLwU91+uQorl1PGiwf/CxJWPzgkBH79/Q+CX2/wX7t+A1xcXLgKIDsuCPbN7V5LARD88iP1cgHnfY5XvZcF//JR+eDhyi/GMnrMGAJfAfAxL0JVU314wYMGD+HCj+P34EYe8NTgTDi0oFe1EiD47Qs/r26/Mfzvz+wM/XJiAXcexv5jHc7OznD4yFGCX6/wHzvxNbhxCnGKBcffyw3aJ4fDmNIEGJDHL9tNY35llQNvu67IAC+o6tQSBrdtBq2j/SWhF/oU13VQJp/5mXysNlOd5ccbscWa/lUyinlQwE++gshoEcK04ALM5pz9/Pzg0uUrBL9CVh85UiX8v/z2O3ToyJ+6M0ew8LPLx9Xem0+cJ4CPCX758CfH8LdFM6d/sCjrtu3vEPgKgq9a+PHCb9+9B9k5OYpZl+dGF9RICjIGn+CXDz4GAuMi/BTpGwR/1eoXCXyFwVc1/Hjx9777L3Tp0lURIVs8Il8a/tdpnp8X4Re/Fx3kY3W/eHt7w4ZNmwh8G4CvevjxBvBYsvRZaNSokVXC9sRg6br9d7YQ/GLAeY/9vd2t6o/cvDw4/vVJAt9G4GsGfrwRzAGYMnUq+Pv7WyR09/dIkbT8tzePoww/GRV+77wxQVZVHlPj/sysLKD0XeUi+oKBNHVWZcDP1I0Ir/33hx8NSz4xGQTXAmCU2JSQGb9W0a6FJPy3No4h+GXAf+bVEbLaHHfnadKkiSF4++TceXDw8Fdk6W1o6QVGhLPm4BduTHzGyi/f//gTxMXFMYWytHWkJPw31o8m+GXAv+cZfp3FZctXwI8//0Kg2xF0MQ/CY13AL9xsp86dmfA3C20kCf/V10YS/DLgf+n+Dsx2Ro9r567dBH4dg49M6Ar+CVVVTKF0aeDMrP8nTPtdXjOc4JcB//T+mcx2RvgvXLpE8BP89glsCJb/hWXLuUL5zmx2DUBUABdeGkrwy4C/fSq7Bh8GZIX+oLN95d+4vXVl+ffu/5wL/xODsyVdf6rjx0/2ubd1AvhxpvmKiosJfgew+qgIdAU/7vbi6urKVABladGS8N/aOJasP8f6f7SIH+y7f9o0gp/grxuXB5NHjKf5hOd+Xm5wllEAVBj3X1tLQT9ecs9DA/nj/bfe3kbwE/x1A/+s2bOZ8KMS2DarnGv9L708jCw/x/KnNQ9mti/O69+59y3BT/DXDfy7dn/EFE6Ef2ynJC786AHcoRx/kwrwq5UV3LX5uBDLOOhEz+uGA92N+fGGcTlwYFAQUwHgJp9Srj8l+5gO+k3vn8FsV1Ss8+Y/RfA7iNXXJfx407jZozDON3Xe+EBHrvW/9Aq5/sbj/rtbJ0BUkDezXZ2cnODkN6cJfoK/7lwdhP+DD/+PKaSoDLpkNOHCb3D9t9AiH7EC2DCTv8sObrWGbU+H47SBrqb6BMHDXH/e7j/1nZ3g4/m9uArgKkX9a4z7s+JDuQqVtthyHOgFDnQJP978Y48/wRXW4aUJXPjPv1gJ92gHH4MCeG9uT25benp6GiovCUJHZ8dQBLqF/8rVa+Duzi44gfXj9y7ow1UA19eNqmH9xG6wXh7f21oFvK25cBg1ZuxYcvcdcMijW/jR+owaPZprsXrlNOXCf+HFobq3/muns1dKIvhYg+/EyVMEP8HvGO6O4HaiUKJwmor442vOTvXgnVn8xT56tv43N4+D2FB++bTevfsQ+A4IPjKga8uPDTB02DAm/KgAWkU3htMram73LaT6Gs4vVsJdnSb93N83ndt2qFiPHDtO8BP8jmX1Bet//uJF8PDw4ArxvyTq+115dYTuxv7/WdAHGtR35rZbRWUlge+g4JPl/1/HPDh9OleIXeo7g9Ra/1ub9FPf7/L60RATwnf3sez2xcuXCX6C3zGtvmD9segnFpJkjf3xddxf7uDi/swAIBb60MNaf1yv3z2Xv+8httf8pxYQ+A4MPll+UefgUlMe/PhefmIonFlZwVQAenD/Zw3Olmyn5ORk+OmXXwl+kXwJhsaRzroP+Ik7Y0hFpaRgDy5sAec4a/61vOjnlWkduav2UEFisZQvDh4i8B0cfLL8Rh1099vvJN1/FPBxEst+tbi5x1uPdgc3F/a0qOA1YeakWKHSY8cd8pLlN1IAn3z6Gbi5uUl6AJO7JDPdf0z+0dKa/+1P9ABPtwaSbYI7J//6+x8Ev5FMOaoCJPhNdBQuQhEsGe9cWRwPZxkxgIsYANTA/P+mh7vIAj8qKhpu3LxF4JuQJ4JfRY2CnTVi5EhZCqA8PRq+fmGQSS/g4svD4O4b6t3cc8n4doArHHkKEN/z8fGBA18eJPBVJuNk+RkdhhV/OpeVSQo+Cn98hB/sfrInWwGozAPAIcu/eqfJunesy7f9nXcJfIYcOarVx+si+Dmd9u1/v4eMTH41WsEqenu4wrJxhaYVwEvqiQEcf3Eo5CaGyQLf2dkZXlmzhsDnyBDBr9LGwY67ffceZGTwa9MJCgDPWPv/i2f61VICGAS8tcmxa/7jCr3GPvxUZ+FeEfzlK1YS+CqWbbL8MjrPoABkegAIB9b/n1uRA2dW1l4Q5Ih5AEdWVULHdH6GowA9ntHVX7lqNYEvQ3bI8qu8kbAD7333X+Dt8iuGQ3gcF+YLL08qgXOrKmt4ApgJ6AipwBfXjQasuCtnGk+4JyyAsvn11wl8Dcg0WX4zOvHnX3+TLAAiQCI+J0U3hufHFNRIDca1AHW1GOjSutHw8KAs8PWSzmcQ30dQcDB8tOdjAt8MmSHLr5HGEjoS8wDkJAKJwcHHuDjoX91T4NOneld7Alf+PcJu+QAfL+4Pwzq0hIbuLrICeuLrT01NhXMXLhD4GpJlsvwWduZn+/ZDdDR7K2oxOMaPsUJQbnwIPDIgE/bM6wVYDBQrAuGKOaVr/+17diDMHJgFybEBZgOP14319idUVcH3P/5E4FsoK4LRcLQzwW9Fh+K+c8OGDzcAYgy4Oc+bhTaCAW2bw9PD82DPwr5wy8I9AW5sHgefLhkAi8e3g/7tWkBUkI9FwAvXHhwSAm++9TZBb4WMOBrw4ush+BXo2Le3bZe1IEiASurcwNnJUCyjpE0UDC5JgKruKYYx+rwR+SAcc4bkwMTuKTCgKB5K20RBkxAfcJaRjSf13/g+WntUajdv3yHwFZAPMXCO9JjgV6hzsSDI7DmPANaolwOYI3/m/mnTCHqF5MKRYDe+FoJf4U6eMnWq6uF/5NHHCH6F5cIYPEd4TvAr3MlT77uP4Fe4TR0BFC1eA8GvsKCqAX6plXpk+R23AIeSSojgtyP8rg2cYUBeUwhuJC9/Xsm4gJNTPUhtGgiz+2fA/qf7cL0Tgp/gp3GfBYqBZ/kxjfbooj5wZGFv2DClBCZ1bglt40PMSq81RyGEN24I3bNiYOHwPDiw6J/FRrgJCe93CH6Cn+C3EfyoAMTHoQW9YMu/SuGJAelQ2S4OSlpHAK4L8PaQzsTDaUGEPKN5EPTIioUHerWBVyaXwOcL+1ZnEdbYYWh1pWEHIoJfH4Dzhgnk9lsAOK9BuZbf9W/LLwbf+PGJpTX3Bvhm+RADyB/N7QkfPtqt+vhkfi84tKR/jfUCxpCznpPlJ/BRhgl+B4efBbA1rxP8BD/BrzD42KDjJ0xgjqc9LLD81kDO+q4U/DMffpiGfDaQDZ7HWBfvkeVXsJOPHj8BoaHsElgervVrjPWNXX58buz2swC25nUp+Js2bQqnz54jBaCgbNQF3FL/SfBb2cHXrt+AF5Yth3ZFRYClrXiBNLXAj/eA22vn5uXBkqXPwtVr10kRWCknUiDWxfsEvwWdimW9Xnr5ZUN1XyxpxQNe/J6a4BdfN95jcUmJoWbf9Rs3SRFYIDN1AbfUfxL8MjsSgcdKteXlXSwq5IEwudvQ7cf9Az97qje8+VAZbH6wE/fYMK2jbIUlVgL4GPfiKysvN7QFVvWhw7I2wJ2hjp34Gn78+Zc6U6YEPwd+XKm3fuNG6Natu8XAi+Fxd1F+zI/TfwML4iDA291ioMXXSI/r2bUdsSYibnO2acsWu291RvAbwY+bdbz/wYeAO/biTjRKwqAk/KeWDYZhJQng7CS9o46S90C/ZTvlgHtEYNBYyl1X6n2C/3/woxs2cdIkbrTeWsFXCv6jzw2EzObBiioma++Nvq+MUvD19YU9H39iFwWga/hPnDwFD82cCbGxsXYBSQn4cWPQgpbs6USCUBkI67Id/fz84OtT39hcAegO/vMXL8L8pxZASkqK4sA3DgqBoLAI5u/iUlpc1GNqfl94TWqeH4t+1qVg0n/bR7nk5ObCb3/8aVMFoAv4b9y6bZimwukqnL9WUoB9/QMgPb8IBnabvQcAABTNSURBVI6dAhNnz4fsog7c39/zaFeL4cfdgP0psMdtXyX7tq5/a+tbbxH8lgQ4vvv+B3ht/Xro2bOXIpF6sSB4N/KF1NwC6DeqCibOnmeAHsHHo7R7P65wLh2eazH8z44u4P62+BrpsX0stC3buUuXrgS/XPhxR51t29+BQYOHgLe3t6KgeHp5Q3JmLvQZPh6qZtUEXgAfzwPGTOb+b3FSmMXw98tvxv3tVq1awZIlS+DVV181ebz22mvw5ptv0uEAbbBp0yYYPnw4tz+9vLxsOv2nercfx0UYHR03fjwEBgVxG9NcLe3u6QktUzOhR8VoqJo1t4aFFwMvflz18FzA77H+y6lePXi1qh1TAZxYUnNJrziHP60Z+/4CAgLgq6++gjNnzjCPK1euwLfffkuHA7VBRUUFU1ZQhs6cs90aC1XCj8Dv+/wATJ8xQ9F6+djYLq6u0KJVCnQdOAwmzHxSFvBi+PFxYhv+lt5YxmvH7HKTCuD4kn8q7ojBx8ctwn2ZgtK+fXsm9IJCuHbtGoHvQOCjIl6zZg2zT1Eevzx02Gauv6rg37lrNwwfMQJCQkO5DcayuqzXcUFOk+bx0KFnfxg7/TGLgBcrgL4jqySvL8TXA16bVFRLARx7hl2Bp3kYG/5OnToR/A4GthwvC4diLLnE1w98eVC/8P/6+x/w6tq1kJyczG0kXgOy3guNjIbCsu4w8v5ZVgMvhh8fRzWNk7xeLKrZKSUSXhxXAFjKS5juwzx9Y6uPzwl+7Q1ZCH6jFFshwPfh/+2ApKQkSYhYcJt63T8wGLKLOkLlpAcVB16sAAaNuw/q15e/4s/L3QU6JEfA9O4p8PqDneDkssG1FADBT/ALbChxdki3/+6330FFZaXVG2AK8Df09oGU7HxDJF4MqK0f53cot1hxoVeAhTlz4kOgS0YTGNKuBfh5uTF/j9x+dSoGsvwiy48BjpiYGKaQC0BLnV3d3A2Bt56VY7hTc7ZUADglKBX8k7oPue8T/AS/ud6AQ1l+zGiyZqPLBg1coFliKyjvVwHjZz5hU7dertKY8PBcSGidZrUyk1ICBD/Br1r4123YAOZUxRFgcHaubwiulXbvC2MefNQhgDdWDOgB5JWWgbPCqcVCG+CZ4Cf4VQk/ZuW5uEhvUCEIO0IU1TwBOvQcAKMfeMQhgTdWAPgcs//Co22zgpDgJ/hVB/+RY8dlF81A6ONap0O3YRNg2L9mqwZ6Y0XQa+hYiEtKMSQUCQrN2jPBT/CrCn4sk5WYmChrPBwYFgllQ0ZDvwkPQP+qB2ECJ7/eGDZHfT7+oSeg++AR0DozFwJCwsBJovovT0EQ/AS/quDnbW0lFvSWGbnQd/w0A/gI//D71Wv1eYpo7IzHAL2CdmU9oE1OW4hpkWioD9DIrzG4e7DXC2BbEfwEv2rgP/TVEckAH1rCrNLyaugRfDzGz5S3yIYHmhrfwwQlsVIUPyb4CX7VwN+5rIwpyAahdnKC7A5da4E/ZMpM1Y71rVU4BL86Aefl+OsuyWf/gS8ks/daZuTVAh+t/shp6onuWwu78fcJfu3Bv27dOq4R/OLgIW0t7MGy2GKX1fixf3Ao9B13v0n4xz3kGMk7xmDa4znBrz34d+zYwWTByckJrly9ph34MW9fKouvfd9Kk+Cj5edV0bEHgHX5H42DaMzPc6HV+N6dO3cAN0Y1NoD4vKi42GbgY3zA7um9a/79b5M3Ktx8eGxzJvgDJ83Q7XgflQ5WBxbayfhMAT/1egV79uyB4OCair1FixZw7sIFbcHfr19/pgCjQLfrPoAJf+XUhwn+eqYLUxL86oUfPZZLly7Bc889BzMffhjWrlsHP/z0s03BrxPLHxzCtl6eXj415vOFqT3hPHzaHIKf4Nd0KbKf7Lhxp13d/lOnz3CtfrOkNkyrjwpg9IzH9Q1/MFtxkuVXt+UX4hWahR93vDUeq4qfm0roEaw+nnF5bF0G3Or6vxsT/Jq2+qgANAv/tAce4MJfNvjv3H0x8MLjAVW2LbtV12DL+f+AYHbhUi1Zfhz/4t4DEydOhPLycigsLITS0lKorKyEhQsXwsGDBzWrBDQLP26XJbb04sdu7h7c8b6eM/sExaB1+HHfAQTcw8ODKSeCzOTk5MCWLVs0pwQ0C7+/vz+zU0OjY7nj/aEqXsIrwGvtWavw37t3D+bOnQvu7u5M+RCgNz537twZTp8+rRkloEn4pYJ9iek5XPhHOmiVHmuBNuf7ASHac/tv3boFvXv3Nht6sRKIioqCL774QhMKQJPwSwX78jr34MKv57ReQUFoDX60+H369LEKfEEJhISEwLFjx1SvADQJ/wMPPsjt5C6V47jw6zmtV4A/MCSM2YZqDPg9+eSTzPsRoDbnnJaWBrdv31a1AtAk/CWlpcyOdvPw5II/SOdpvVqE/8iRI7ICe+bAj5/F2IEwZ66mM+6j+Morr8C8efPhrbe3wS+//a6dDD//xo2Z8IdExXDh13tabzX8odqx/EOHDmXKgxh4DBK3bt1a9l4OuFux2jYk3b9/P2DcQnzfKSkpcPnKVZsqALtk+H1z5myNGxPfJD5OSMvmwj9Cx2v4BfDxHKgR+C9fviy5sjMsLAyeeeYZOHz4cPUGpLt27YIOHTpwZQnlacWKFaqx/nfv3oX4+HiT99Spc2f1w79h0yaTNycogdxO/GDfGJ2n9QoKIDA0nNmOahrzr127lnkfKBMI/nvvvQf79u2rAT9uNY7Tev378xeHdevWTTXw79y5k9kWuJ7/6rXrNlMAdrH8ksG+irFcy6/3tF4B/iCNwD958mSmwCP8ixYtMoCP8B84cKDa8iP8eBw9ehQCAwOZvxEaGqoa+DVfyYcb7HP34II/YOJ0XefzC+DjWSvwd+3alQmur68vfPbZZ9XwowI4depULQVQUVHB/A1UINevX1eFAtB8DT9rgn2U1ju/WvlpBf6ioiImuAkJCTXAR/gPHTpUC/5Zs2YxfwPhV0vWn6bhP332HLeTpIJ9at6ZR2y1lXgcFBrBbEs1jfk7duzIvI+IiIha8KMCOHHiRA0FgIt+EHLWgYuD1DDVJwW/qgt4Sgf7unPd/lGU1vuP5Q/TBvzDhw9nQoswb968uZYCwOmwkydPViuA5ORk5m94e3sDZg8S/H9xg4U2D/g9OH06s5Owo8srxnDhH+cgW20rYbmt/Y0gjcC/ePFirky0bdsW9u7da1IBYArv0qVLud/Pzc1VBfionDRt+Uvbt2d2lKtEsA/X8lNa7z9j/mCNwI9Ld3Eai+Wy4+sYFMR5fXT5xcfjjz8uufoP4wFqsPqah58X7AuObMK1+pTW+w/46DVoBX4U+vz8fC78qAAwuw9X/E2ZMgVwqIDBQJ7CwPfq168PmDpM8PNdfpsX8JQM9qVmceGvvE/f1XqNhwnBYZFM4VdTwA/B3Lp1K/NepADnvT9w4EDVgC/H8n956DB33G7u/nziz9t0zL9x82ZuB+d25Af7KK3XyPKHawd+FHzMxOOBbO57mCOAQUG1WH1Nwz99xgxu55YP4Qf7KK1X2/CfP38emjRpwpURuQrA2dkZ1q9fryrwNQ0/N9jn5s6t2UfVemuCbxjza8zyo/BjMc7ISLZHIwd+BP/ZZ59VHfiahr9xQABTqwdHRHPH+5TWWxv+kPCayz7FYKhtzI+CLxyYwJOVlcWUFfF9Gj/28/ODjRs3Vv+W8JtqOUtN9alyzH/mHD+zL74NP9hHab214Q/WoOUXIMUNK3FBT1BQkCwl0KBBA8Dg3tdff61a8PHepeA/ePgr9QX8Nm3Zwu3EnA7duJbf0rTe8TOfgJJuvaFVejZktC2GgWOnVmfIGUfP1fZcy/ALSgAX5KxevRp69OgB4eHhNfIBfHx8IC8vD+bMmWNY2Sd8R81nKfhVafmlgn1lQ9gbdOB435K03lEPzIEAozp3Tk7OUFTeSxMKQEvz/HKBvXnzJpw9exawAIjc76jpc1Lwq9Lyt+dUXHGVEewbN/NJs4FNaJNh0ttwdq4PFZMeMPv3HM0z0Ep6r5rgtPW1ahL+AE6xhSCJYJ+lab24649xQEh43rZjV/XDr5FiHrYGSk2/rzn4pYJ9Ldpkcsf7gybPsAhUAXRT54yCYot+05Gsv1bKeKkJTltfq+bglw72deXCX3nfLItANQW98FpGQYlFv+lQ8BvFM4R7w7Oap/psDZgj/74U/Ie+OqKuaP+Mhx5iut8oqLzdeNHltzStVwyD8WOC/4zqSlo7MrRKXZvm4O/AqdTi4uYmmdlnaVqvMfDi51qAX6sbdSoFkhp/R3Pw84J9jYPDoOvQ8dxj6JQZMHzqQ2YfYtiNHxP8ZPkdUTloCv6z589zXX5jKO31XAvwNw4OYbYtjfn/SRd2RMhZ1yQFv6rm+Te//jpTQO0Fuqn/0QT8QQQ/CyK1vq4p+KWCfabAtMdr2oA/mKlYyfJr0/KrKr2XF+yzB+Ss/9AC/P6BBL9aLTzruqUsv6pKdwfKXJXFgtRWr2sDfvaKN7L82rT8B748qI55fkcN9qFC0QL8fgEEP8uCqvV1KcuvGvgdNdinHfjZm1OS5dem5f/8iy/VYfkfmjmTGZBCAKeWt4LZfVKZx6P9M+DJIdkWH7whgzYsP8GvVgvPum4py7//wBfqgL9jp05M+L3cG8BXC3vD0UV9mMep5wfC+dWVFh8E/99bWAtbWRufr127psk18Syw1PC6ZuDnBfsymgYyoRcUwpnlgy0GH5UGwU/wqwF48TVKwb/v8wOOb/nPXbjAha+yME4S/rMrKwj+2bVr9wkrCyngp85xvRh248eagH/LG29w4X9qcCYX/mPP9LUKfH1Yfor2G8Oj9udS8Ksi2i8V7Ns+vSMX/hNL+hH8HKuP1p8sv/4svypy+3nBvoZu0sG+k88NIPitgL9jx47Ve9cbB/qE5xTwczzlIWX5Dx856vhj/qBgduppemwA1+pjwO+bFwYR/BLw8wp44g62p0+f5iqAq1evUrRftFmIIwwZHnvsMe5w+cTJU44N//mLF7k3UFHQXBL+Myusi/TrYczfNL4lt50nTpwIuPuNYOmNzxcvXiT4HQj+7du3A+44xJqlwu3Gv/v+B8eGf+tbbzFvAG9s/iB+sA8t/7lV1kX6tQR/v5FV0DorD7BOf0Mvb8CqxHigMLAERXjdxcUFcHML1oE72dJR923g5eUl2Ze4ByEqBzywQE6LFi2gf/8BsH7jRvj519+sVgqKbNE955FHuTey7UF+sO/YYusj/VqAf9iUGdCkeTy3LQXI6VxP1+0UGxsL773/gVUKQBH4e/ToyewIOcG+r5f2t3q8r3b4+4+ZDB4Npa0BQa9v6MX9j57BwkXPWKwAFIEftZD4osSP02QE+05amdaL4KsZfqxX6EngM2VILE/0uKbyc3JygjWvvmqRArAa/u9//Ik7Fh2Q11Qy2Hd6mfWRfjXDHysRyCOBrynw1B412wPjOxcvXzZbAVgNP5YZ4nXGjB4pkvCfXTFEt27/gDGTue3Ha1t6ryYEem6PSZMn2x/+d959jyu8y0fnS8KvRKRfrZa/TU4Bt/30LNB07/KVG84G/Pr7H2YpAKstv9Q03/rJxZLwC2N2a888YXHU9fwhEVFc+DMyMqB79+6KHL169YJ+/frRocI26Nq1K3h6enJl5cix4/aF//92/Id7QS+PL5QBv/Vz/Gq1/J5e3sz2S0tLgw8++ECxY/fu3bBv3z46VNoGs2fPZsoKGr7t77xrX/hxI0GexX28f7ok/OesXMoreAy863BUy+/q7s5sv549eyoGPiqRjz76iMBXKfiotF9++WWmrKDsv/X2NvvCj+mHON/IAq97RrQk/KetLOKhZvi9G7HTO1NTUxWFnyy/ur2eWbNmMTlD/j7+5FP7wv/7n38Z0g5Z8Lu71Iedc8q5CsDa8l1qhj+qaRyzQ1GpvvTSS4opgB07dpDlV6nl37t3L7Rq1YopKzjff+PmLfvDP278eOZFoVLARJ/P5/VgKgBM7z1nRe0+NcOfXdSB23aJiYmwbds2xRTAZ599RgpAhQpg0qRJXDnBVZ1oiM05rI7245/t3LWbe2GoAGKDfWDJsBw4/HQvk0rgGwUSfVjeB77uqGP+QePuk2y7pKQkWLNmjSIKYNeuXQS/iuDfs2cPDBs2DNCy8+Qbi+mYAz5+VhH4f/vjT65LIr5obw8XyG0RDP1yYmFkSTyM65BoOMZ3TITJXVtbdYj/x/hxWHQMZBaUOOSBK/aMr9f4Oa7ow+h/nz59YPDgwWYdKDzz5s2D999/36BAPvnkE9kKAN3N5557DsaNGwcjR46kw05tgH2GezHgCkxjWTB+jis5z5w7VzfwoxZ54803JS/S+KLpufwkDiXaCpXH22+/DR9++CF8+umnkgoAZwdycnKoX+vZt5/M7Wscdptr9RWz/MIf9+vXnwTFwQWld+/eBuuPCuDjjz/mKoAhQ4ZQfzp4f0ZFRcOtO3frHv5v//s94PSUuZqLPm8/y4KFIcSJQzgDgEoA3XvjBKDAQPYOQdRn9uszVltjQZC9+z+3CHzFLT/+4M3bd6BtAeWrszqsrl93dXWFb86cg9NnjY/zcOb8RTh74VL1IZVOWtf3ouf/x5V8mF0reN2WnBUJ+Bn/MZYYmjV7Nri5uZEX4GBuY25enmyBKSgspP5zsP5DhYfz/ebm8Rszis9tAr/wRxiBnFBVxS1SqGftbe97R6u/a/dHsuHf8/EngN+x93XS/5keUoSEhsLTCxfBT7/8KrsPBRZNnW0Kv/CHP/z0M7z73vswfcYM6NS5syEjEKcwSLBMd7LSwu/u7g55+fmw+6M9ZgsNKgAcxuFvKH1d9Hvs/sepXWQkJSUFRowcCa9v3Qo//vyL2f0nMGjqbBf4Tf0xvWZeNha1F7WX0jJA8JuZEql0B9DvEdR1JQMEP8GvqCtZV4JM/2u+EiX4CX6CX6cyQPDrtOPJUppvKbXWZgQ/wU+WX6cyQPDrtOO1ZsXofsz3ZAh+gp8sv05lgODXaceTpTTfUmqtzQh+gp8sv05lgODXacdrzYrR/ZjvyRD8BD9Zfp3KAMGv044nS2m+pdRamxH8BD9Zfp3KwP8Dmno0KwgW8kkAAAAASUVORK5CYII=;" vertex="1" parent="1">
          <mxGeometry x="310" y="440" width="65" height="69.84" as="geometry" />
        </mxCell>
        <mxCell id="jB2mbe5VPFW1o1fGi5t6-14" value="" style="edgeStyle=orthogonalEdgeStyle;rounded=0;orthogonalLoop=1;jettySize=auto;html=1;strokeColor=#7EA6E0;fontColor=#143642;fillColor=#FAE5C7;strokeWidth=3;shadow=1;" edge="1" parent="1" source="jB2mbe5VPFW1o1fGi5t6-15" target="jB2mbe5VPFW1o1fGi5t6-13">
          <mxGeometry relative="1" as="geometry" />
        </mxCell>
        <mxCell id="jB2mbe5VPFW1o1fGi5t6-15" value="馒头GPT" style="image;points=[];aspect=fixed;html=1;align=center;shadow=0;dashed=0;image=img/lib/allied_telesis/computer_and_terminals/Server_Desktop.svg;strokeColor=#0F8B8D;fontColor=#143642;fillColor=#FAE5C7;" vertex="1" parent="1">
          <mxGeometry x="420" y="448" width="42.599999999999994" height="54" as="geometry" />
        </mxCell>
        <mxCell id="jB2mbe5VPFW1o1fGi5t6-16" value="" style="edgeStyle=orthogonalEdgeStyle;rounded=0;orthogonalLoop=1;jettySize=auto;html=1;strokeColor=#7EA6E0;fontColor=#143642;fillColor=#FAE5C7;strokeWidth=3;shadow=1;" edge="1" parent="1" source="jB2mbe5VPFW1o1fGi5t6-17" target="jB2mbe5VPFW1o1fGi5t6-15">
          <mxGeometry relative="1" as="geometry" />
        </mxCell>
        <mxCell id="jB2mbe5VPFW1o1fGi5t6-17" value="索引服务" style="image;points=[];aspect=fixed;html=1;align=center;shadow=0;dashed=0;image=img/lib/allied_telesis/computer_and_terminals/Server_Desktop.svg;strokeColor=#0F8B8D;fontColor=#143642;fillColor=#FAE5C7;" vertex="1" parent="1">
          <mxGeometry x="510" y="447.92" width="42.599999999999994" height="54" as="geometry" />
        </mxCell>
        <mxCell id="jB2mbe5VPFW1o1fGi5t6-18" value="" style="edgeStyle=orthogonalEdgeStyle;rounded=0;orthogonalLoop=1;jettySize=auto;html=1;strokeColor=#7EA6E0;fontColor=#143642;fillColor=#FAE5C7;strokeWidth=3;shadow=1;" edge="1" parent="1" source="jB2mbe5VPFW1o1fGi5t6-19" target="jB2mbe5VPFW1o1fGi5t6-17">
          <mxGeometry relative="1" as="geometry" />
        </mxCell>
        <mxCell id="jB2mbe5VPFW1o1fGi5t6-19" value="数据库" style="shape=cylinder3;whiteSpace=wrap;html=1;boundedLbl=1;backgroundOutline=1;size=15;strokeColor=#7EA6E0;fillColor=#d5e8d4;strokeWidth=3;shadow=1;" vertex="1" parent="1">
          <mxGeometry x="600" y="435" width="60" height="80" as="geometry" />
        </mxCell>
        <mxCell id="jB2mbe5VPFW1o1fGi5t6-20" value="半托管部署" style="text;html=1;strokeColor=#7EA6E0;fillColor=none;align=center;verticalAlign=middle;whiteSpace=wrap;rounded=1;shadow=1;" vertex="1" parent="1">
          <mxGeometry x="220" y="459.92" width="70" height="30" as="geometry" />
        </mxCell>
        <mxCell id="jB2mbe5VPFW1o1fGi5t6-21" value="馒头域" style="rounded=1;whiteSpace=wrap;html=1;strokeColor=#d6b656;fillColor=#fff2cc;verticalAlign=top;shadow=1;" vertex="1" parent="1">
          <mxGeometry x="485" y="550" width="200" height="130" as="geometry" />
        </mxCell>
        <mxCell id="jB2mbe5VPFW1o1fGi5t6-22" value="" style="shape=image;verticalLabelPosition=bottom;labelBackgroundColor=default;verticalAlign=top;aspect=fixed;imageAspect=0;image=data:image/png,iVBORw0KGgoAAAANSUhEUgAAAP8AAAESCAYAAAAypQMiAAAgAElEQVR4Ae2dd3wU1fbASSCVJCQhvZIAIQkhhPRGQgotofeW0GtoPlEQASsggoCFasGHdEUF648HiAUQBaQJ0ntHn73+cX6fs76Jk83eO7O7s5udmfPHfGb7ztx7vuece+6559b7/c+/gA5qA5IB/clAPep0/XU69Tn1OcoAwU+eD3l+OpUBgl+nHU/Wn6w/we8A8P/0y6/w1dFjsHHzZpj/1AKomjgRunfvAdk5OZCQkAChoWHg5eUFHh4eUL9+fahXr57hsa+vL4SEhkJiYiLkt20LPXr0NHx3wdMLYdOWLXD4yFH4+dffyLI7QB87orIl+O0sGL/+/gcc+PIgPP/CMqiorDSA6+LiYgAaoVb6cHV1haSkJMN/vbBsOXx56DDgNTiiMNI12dcbIfjtAP+ly1dg2fIV0Lt3H2gcEKA44OYqDB8fH+jatRusWLkKLly6RIrADjLgiIqN4LdRx1+8fBnQ/c7NywNnZ+c6B56lIJycnCA1NdUw3Dh/8SIpAhvJA8Gv8Yb98edfYO26ddC5rAwaNGjgsMCzFAEqqeKSEnht/XrAe3FEgaVrUm5oQJZfAYV04+YtePSxxyE8PEJ1wLMUAQ5PHp41Cy5fuUpKQAEZcUSlRfBb0bE4lp9QVQXu7u6agd5YGeC9jZ8wAc5duEBKwApZIfg10nhXr12HcePHg5ubm02gx3G4h4c7+Pk2gqDAAAgPC4WoyAiIiY6qPppERUJkeBiEhgRDQGN/8Pb2AlcbzhoISuDa9RukBDQix2T5zejIH376GZ6cOw8wWm5sIS15jpA39PSE4KBAaB4bC+ltUqC4sC2Ud2wPXTp1sOjoVFoMBXk5kJqSDHHNYiE4KAjcFVRSjRo1gnnznwJsC0e0ZnRN8mMCBL9M+N99732IiYmxGnqvhg0NFjspIR5yMzOgXX4edCwptgh0cxRESWEBpCQnQWREuCLKIC4uDv6zcxcpAJny44hKieCX6LzrN27CoMFDAK20JdYdv+Pj7Q1NY5pAZloqtM3JNhwIPVppcwBW6rPoWbTNzYbmTWMNnoel94VtMmLkSLhz71tSAhJyRPCrrIG2v/MuBIeEWAS9m6srREVEQEZqm2rgEfzCvFzoWFJUJ9CzlEd+TjZER0ZYPD2JHtHHn3xKCkBl8k2W30SH4Xh20uTJFiXneHt5QXxcc8jPzqoBPYJf2q7QqvE8C16lXu9UWgJJifEWeQOY14DTnb/98ScpARMyRZZfBY2C03cZmZlmW3tvr4aQlJBQC3iEHl38sg6lDmXteQoDhwWprZMBFZm5Q4Ju3brTMEAFco7KiCy/qKP2fPyJ2W4+RtITWsSZhB7Bb1/UzqGtvZQSwCAhTjuaowRwJeKp02fIAxDJFll+B26Mf7/2mlnz9pgK2yQqCvKyMk2Cj2P7zu1LVGPteUoA7wODg+asUcBlyF8cPEQKwIFlniz/n3/B0wsXmSXYvo0a1QrkoZUXjuIC6+bqeSDW5Xvt2uaBv5+fbC8AcwJ27f6IFICDKgDdwz9r9mzZwoyWr1lME5PBPAF8dPPrElBb/zfGA3CYI9cLwCIkpADkJ97Yc3iga/j37v9c9vw9Juekp6RUW3cBdvG5rubtbQ28qd/HPAFPDw9ZihMVAMZT7CnY9F/SCkfX8Mu1+qHBQcyxPcJfkJujmfG9KdBZr2G+Aq49kBMM9Pf3hyPHjpMCcKAhgM7hn8MVXMxgaxYbw7X2egVfUAg4DMDApxwFEBUVTZWDCH5pl8Qebtvuj/YwhRYLZSYlmp63F1x9BF9N8/cCsLY4Y2KTHAXg5+dnCLBi0VJ79DH9B5s1XVt+FIyysrJaQotFL9sktyKLb+bKQlSWchQAfqZ169aG6sIEJxtOW7eNruHfu3efYbyOrn0jHx9DRltYSAhkp6dxwcdgl1bm8JX2AlomxMtWAA0bNoRX164lD6COhgK6hf/4iROGXHvBhTfnrKeoviXKoUXzprIVAMZVHnn0MVIAdaAAdAn/9Zs3oGt5Z751FyXtiBVDh2Jtz+NbArup70SGh8tWADgMeHD6dFIAdlYAuoP/l99+hzEjR1gEPhbEMCXo9FrtqkMYCA0ODDRLAWCFIFuPc+n3/4kx6A7+uU8+YRH4uDIPp7UI9Nqgs9oE2yulVRJ4espLBsKsQdxmjAD9B1BbtoWu4N+5c6dF4NOUnnzgTSkC9ALimjWVlU2J9RFPnDxFCsAOQwDdwH/l6lXAYhXi8bvcxx0crPKOKcDU8FpOZgbI2ZcwLS2NNhgl+C1zf3AjStwIE3e5xUKTWINvxPBhFoGPK/TUAJZarrFdfi64ublKxgJwt2Jburz02xot5jFy1KhawoUZe1idRq61x8+hu1+uogo8alEAWOtAajszzAHAqkoEqWUGUE67ac7t/+DD/6sFvpB1hptgmAM/TetZN9bnKSOsZCz0C+uMSlyOENNnLFMQmoIf3f2UlBSmUGE0WS78GN3nCS+9Z71iiI1pwuwrVAjoHXxz5iwpABuN/zUF/7oNGySFSS78lL5rPdxSCrJzh1Lw9PTk9tnESZMIfoKf79qg1U9MTOQKEiadyIG/uCCfrL6Zi3qkQGe9j/sasNx+fB2n/mhTEL7sWzrs0Yzl3/rWW1whwhzyjDb8SjyCYujcXj1ltllQqel1X99G3L5btfpFsv42sP6agb+gsJArQLhaT4Cbd6apPdu7+8aKScr6F5eUEPwEv2n3Z/+BL7jZYzjNJ7lM938LeWisb3/4MQ3Yw529NwD2H26Lbql7S98zzY0mLP/gIRVcqx8RFirL6he1pbG+sVW21/NmTWO5fYj7KhDEpiG2tF1UD//tu/e4EWMc62eJdsflufy0Tt/+Vl9QLgV5uVz4hw0fTvAr7PqrHv4VK1dxhSYkKEiW1cesM0EQ6Wx/JYCuv7u7G7MvcSdgSy0cfc+0x6B6+HNy+RZDqhaf4Am0Lyok+O00vcdSrpER7AIg6MHdvH2HFICC1l/V8J/85jQ30Ie7zApwS52pCq/9rb2xEkhO4udp/GfnLoKf4P/bjcE99ngJIs1jY2XBj3vQGQuiXp+XFhVCblYm5GVngr29ISyMyuvPxUuWEvwE/9/w8+b20U3MzkiXBb/eF/DgeLt1Ukvw8faqBZ+3t5fhPfyMrRUiel/YbywFQKm+psfulsY0VOv237h1m7ss1M/XVxb4OBzQs8vfvrgdBDT2ZwIngNjY3x9wey5bKwAPD/Z8f69evcnyk+X/C3DeVxBMU2fZLn++fqP8+TlZ3OQa43bFJdG2VpT+fr7Mfs3Kzib4Cf6/YPSYMUwhQaHNTG0jy/KXtNNnRd7WrZJkb7MtVgLNm8ba1PqHhYYw+zU6OprgJ/j/gvh49s4wuHW0VHRfeL9TSbFNhdnWbrK5v4+JTJHhYUzAxKCbeow1EWwZII2OimReW+OAAIJf7/BjnjcvMBQaHCwbfnsEsswF1FafxwKaqBhNQW3Oa76NbOf+xzaJZl6fl5cXwa93+KWW77Zo1lQW/HrJ6kNrHxMtbxttuUqgSVSkTTwmHFawrgEX+Fga2abv1Z4pUGW0/9HHHmcKCApOekprWfBrffkuejW4aYabq3S1XDFwvfObQ1KTAG4b4+dbNG+muALA3xRfi/Fj2tq7NsSWKjZVwt+7dx+mgOCYND87Sxb89k5isZU7b+p3szPSAN1zY3h4z52dnGDW4Gy4t3UC7FjQB/A57/P4HnoUSs4AxMc15/7nDz/9TNZfIddflfBjLX6WUHo1bCgLfAz4ddRgsA/H9Tgnz2of1uuNfdzhjTnd4Ns3q6qPMeXJsn4HtzcvVGjKlOBXzrJLeQSqg/+3P/4ENzf26q/AgMay4VfSYpmyvvZ6De8jJbmV2ZZeUATtWkfC8ReHVkMvKIAbm8dBavMgWQoAfys8NBQwRdea+yb4CX6ma4cbOQhCa+qMW0ML03hSZ7VH+tHaNouN4SpDU20kvObu2gDmj2wLd7dOqAW+oACOrqqEwEbmzRBgRd6oiHBISoiHrPQ0szIDCX6Cnwn/p5/t5cKPMEhBj+/jbjzWWKi6+i7OUCAgPj7e3HYQAGed0+OCYf9zg5jQC/Dj+dMlA8Dfm512y/oP4XWclg0PC5W1UIjgJ/iZ8L/x5ptcoU9s0UIW/GrZlKOksADatG4F0ZERwMt7F0CTOuPY/tkJRVxrLwZfeLznmX4Q6GueB2B8LVinT6osOsFP8DPhf3XtWi78uDpNjuUvMmNHnpLCtpCemgJJifGGraZxu2kUUpxGy8lIh+LCtmDtEKJDcZFhvNymdbLBlQ8OCjQr794YNOPnDeo7wYhOSXB+7UhZ1l6AXnw+tnootG4ayG1/4/81fo7BQV5bEfwEPxP+ZctXcIVP/hw/v1gnrmmPjowEd05VWWPBxvl0XBaLq+SwfFhEWBhERUYApqzilBiesVoNusC4gQiuPPRq6AkN6tfn3pPx/5jz3NnZCfoWxMGXywZbDL1YAVzbOBZwFsDJqZ7F14yKlDVsIvgJfib8Cxc9wxU6ucU6WQk+WEO+kZXjaXPgtNVn6zs7Qc+8ZrDv2YGKQC9WAPj4Pwv6QH4Su+wW775QIRL89oOcNeWnuqk+3LedJ1i5mRmy3H505cUCiGNrnCbk/bYa3vPzcoPJPVPh6OpKm0BvrAQ+mNcLumTHgpuLfO8lKCCgRtuL+4Esv/2Ugurgf+LJuVxA87IyZcL/z1Je3C7apUED7u86MvjoguckhsLzE4sB3XJjQO3x/OK60bBiSilUtk+EVjEB3OxAHBaJgRc/JvgJfqbbL5XXLze1V1jHn9ySXzTSUaFH4NPiguGRihyTCTr2AJ73H1nxoUxlSvDbD3CWy4+vq87yz57zCFOoEFQ5kX78DMKPMwOOCrep6wr284Qeec1g2aQS+GbNiDqx8Dzgxe8R/I4BOMH/v334xIoB6/nzagKYgs+er/k0dIXshFDD9NzS8UWGhJx7W//JuxeD5oiP8dpZ7UWW3zEUg6YsP8IsBpz1GOfmXWUuc3Vp4Azl6U1g6ai2cHDZELi1ZTwghDhf/sni/rBuRhnMG5lvCLINLIqH0tQowOy5hCh/CA/wArTWGITzbegGvl5uhufRwT4QH+kPOQmhUJYVAxWlifBg/wx4YVIJbHu8B+B8Oq6sc0So5V4Twe8YgJPlN7L8OAfPskri13vlNIW9C/rA+dWVhuPeG+oGUi64SnyO4Cf4mYE7nkbivWftmD+1tfQyVXfX+vD82MJq6Al+84cbOYnsOoHk9juGYtCU249WWyraHxTIr1CD89UbpnWsBT4qALL88pUAwe8YgPMMqa7gxx18pIJ8Tw/LNQk+wS8ffBw25JLlV9zr5YFsyXu6gh8X5IjH9MaP8xPDmOAT/GbC35LcfkuAtOd3dAW/VPruhmkdCH5RGS9rAn95BD9ZfqU1mVTAz9SYH1N+czIywJ1T/qtJkDecW/V3VF8I8Bmf1T79Zg3M5n43ryV70U9jPz/o1L7EZOFPSu+1X6xAc5YfF/YkxDWHkOAgaOjpCfWdnbmuvuD6Dy6M41p9cvvNc/vlrvhzd3eDwMaNDWXAhSpFQp+YOlP1XuWUg+bgx40dTAmN1GuPDcoi+BVy+dFLkAu/cb80kFhgRfAT/BYBbixo4ufLx7cj+BWEv62Fa/3FfWLqMcFP8CsO/4sTi6XhV3nKrbnjdms+37YVe8xvCmq5rxH8OoZ/ziOPKg4+Ct7qqiKCX0HLX9Aqwib9RPDrGH6paL9cC2L8udVk+RVdSETwKwep0jNmwu9pLuBnDLXc5wS/edF8qSFBQTJZfgEyRz2rDn5z3P6gRh7QNSMGpnZLgWElCVw3lNx+ZeEv5MAfE+wDD/RMhVHtEyEzLhiw2KhcJU1uv3Ieherg79u3n6SghPk3hGXjCuHMyiHV4/htD5dzv0fw2w/+vITQ6n7B/InPFvSGocXx3Lp/gnI48OVBh8+cc1RLb3xdqoL/8pWrkkU42rUKh+PPD6ohXChgisBP6/llxwVw808BWOOzMfxCJuXaqe3B041fSHXkqFEEvx636F6xchVToFDA2sQGwjfL/7H2glAR/MpadanxPr7Pc/tZ8GM/rZlcwu3jgMBAwJ2aja0YPTd/OKAqyz9w4CCuYGyf1aWWxRcUgBKW/y5ZftmWnxfw48GP/VWWHs3t50NfHSH4FbD+qoI/PT2dKRTxEX5M8JWy/AS/fA+CN9UnBf+LVUXMfkYPb/PrrxP8eoM/MjKKKRTlqVFw8rkBcG5VhUklIGn55czzk+WXbfl5GX4s+M+uHAJfP9sfdszmB2eff2EZwa83+GNiYpjwl6VGwdFFfeDYM33h1PMDAQVJcPllWX6CXzbYcsb8vIU9YvhRWZ9eNgi+Xtrf0H/YhztmlTH7GS3/8hUrCX69wZ+WlsYUiuYhjaqFBwUIj+OL+xqECj2CNx7oyPwuCpSsJB+y/LIVBA/+7LhgOLGkHxxb3LdWn2G/PT8yj9tXGzdvJvj1Bv+QikquUGyYUmxSmFCgNk7lR5HlwH/3jfGyhV+OddTyZ3jFPLKaBzH7CfuqNJm/KOjo8RMEv97gX7lqNRf+lpF+8OVTPU0KljLwU91+uQorl1PGiwf/CxJWPzgkBH79/Q+CX2/wX7t+A1xcXLgKIDsuCPbN7V5LARD88iP1cgHnfY5XvZcF//JR+eDhyi/GMnrMGAJfAfAxL0JVU314wYMGD+HCj+P34EYe8NTgTDi0oFe1EiD47Qs/r26/Mfzvz+wM/XJiAXcexv5jHc7OznD4yFGCX6/wHzvxNbhxCnGKBcffyw3aJ4fDmNIEGJDHL9tNY35llQNvu67IAC+o6tQSBrdtBq2j/SWhF/oU13VQJp/5mXysNlOd5ccbscWa/lUyinlQwE++gshoEcK04ALM5pz9/Pzg0uUrBL9CVh85UiX8v/z2O3ToyJ+6M0ew8LPLx9Xem0+cJ4CPCX758CfH8LdFM6d/sCjrtu3vEPgKgq9a+PHCb9+9B9k5OYpZl+dGF9RICjIGn+CXDz4GAuMi/BTpGwR/1eoXCXyFwVc1/Hjx9777L3Tp0lURIVs8Il8a/tdpnp8X4Re/Fx3kY3W/eHt7w4ZNmwh8G4CvevjxBvBYsvRZaNSokVXC9sRg6br9d7YQ/GLAeY/9vd2t6o/cvDw4/vVJAt9G4GsGfrwRzAGYMnUq+Pv7WyR09/dIkbT8tzePoww/GRV+77wxQVZVHlPj/sysLKD0XeUi+oKBNHVWZcDP1I0Ir/33hx8NSz4xGQTXAmCU2JSQGb9W0a6FJPy3No4h+GXAf+bVEbLaHHfnadKkiSF4++TceXDw8Fdk6W1o6QVGhLPm4BduTHzGyi/f//gTxMXFMYWytHWkJPw31o8m+GXAv+cZfp3FZctXwI8//0Kg2xF0MQ/CY13AL9xsp86dmfA3C20kCf/V10YS/DLgf+n+Dsx2Ro9r567dBH4dg49M6Ar+CVVVTKF0aeDMrP8nTPtdXjOc4JcB//T+mcx2RvgvXLpE8BP89glsCJb/hWXLuUL5zmx2DUBUABdeGkrwy4C/fSq7Bh8GZIX+oLN95d+4vXVl+ffu/5wL/xODsyVdf6rjx0/2ubd1AvhxpvmKiosJfgew+qgIdAU/7vbi6urKVABladGS8N/aOJasP8f6f7SIH+y7f9o0gp/grxuXB5NHjKf5hOd+Xm5wllEAVBj3X1tLQT9ecs9DA/nj/bfe3kbwE/x1A/+s2bOZ8KMS2DarnGv9L708jCw/x/KnNQ9mti/O69+59y3BT/DXDfy7dn/EFE6Ef2ynJC786AHcoRx/kwrwq5UV3LX5uBDLOOhEz+uGA92N+fGGcTlwYFAQUwHgJp9Srj8l+5gO+k3vn8FsV1Ss8+Y/RfA7iNXXJfx407jZozDON3Xe+EBHrvW/9Aq5/sbj/rtbJ0BUkDezXZ2cnODkN6cJfoK/7lwdhP+DD/+PKaSoDLpkNOHCb3D9t9AiH7EC2DCTv8sObrWGbU+H47SBrqb6BMHDXH/e7j/1nZ3g4/m9uArgKkX9a4z7s+JDuQqVtthyHOgFDnQJP978Y48/wRXW4aUJXPjPv1gJ92gHH4MCeG9uT25benp6GiovCUJHZ8dQBLqF/8rVa+Duzi44gfXj9y7ow1UA19eNqmH9xG6wXh7f21oFvK25cBg1ZuxYcvcdcMijW/jR+owaPZprsXrlNOXCf+HFobq3/muns1dKIvhYg+/EyVMEP8HvGO6O4HaiUKJwmor442vOTvXgnVn8xT56tv43N4+D2FB++bTevfsQ+A4IPjKga8uPDTB02DAm/KgAWkU3htMram73LaT6Gs4vVsJdnSb93N83ndt2qFiPHDtO8BP8jmX1Bet//uJF8PDw4ArxvyTq+115dYTuxv7/WdAHGtR35rZbRWUlge+g4JPl/1/HPDh9OleIXeo7g9Ra/1ub9FPf7/L60RATwnf3sez2xcuXCX6C3zGtvmD9segnFpJkjf3xddxf7uDi/swAIBb60MNaf1yv3z2Xv+8httf8pxYQ+A4MPll+UefgUlMe/PhefmIonFlZwVQAenD/Zw3Olmyn5ORk+OmXXwl+kXwJhsaRzroP+Ik7Y0hFpaRgDy5sAec4a/61vOjnlWkduav2UEFisZQvDh4i8B0cfLL8Rh1099vvJN1/FPBxEst+tbi5x1uPdgc3F/a0qOA1YeakWKHSY8cd8pLlN1IAn3z6Gbi5uUl6AJO7JDPdf0z+0dKa/+1P9ABPtwaSbYI7J//6+x8Ev5FMOaoCJPhNdBQuQhEsGe9cWRwPZxkxgIsYANTA/P+mh7vIAj8qKhpu3LxF4JuQJ4JfRY2CnTVi5EhZCqA8PRq+fmGQSS/g4svD4O4b6t3cc8n4doArHHkKEN/z8fGBA18eJPBVJuNk+RkdhhV/OpeVSQo+Cn98hB/sfrInWwGozAPAIcu/eqfJunesy7f9nXcJfIYcOarVx+si+Dmd9u1/v4eMTH41WsEqenu4wrJxhaYVwEvqiQEcf3Eo5CaGyQLf2dkZXlmzhsDnyBDBr9LGwY67ffceZGTwa9MJCgDPWPv/i2f61VICGAS8tcmxa/7jCr3GPvxUZ+FeEfzlK1YS+CqWbbL8MjrPoABkegAIB9b/n1uRA2dW1l4Q5Ih5AEdWVULHdH6GowA9ntHVX7lqNYEvQ3bI8qu8kbAD7333X+Dt8iuGQ3gcF+YLL08qgXOrKmt4ApgJ6AipwBfXjQasuCtnGk+4JyyAsvn11wl8Dcg0WX4zOvHnX3+TLAAiQCI+J0U3hufHFNRIDca1AHW1GOjSutHw8KAs8PWSzmcQ30dQcDB8tOdjAt8MmSHLr5HGEjoS8wDkJAKJwcHHuDjoX91T4NOneld7Alf+PcJu+QAfL+4Pwzq0hIbuLrICeuLrT01NhXMXLhD4GpJlsvwWduZn+/ZDdDR7K2oxOMaPsUJQbnwIPDIgE/bM6wVYDBQrAuGKOaVr/+17diDMHJgFybEBZgOP14319idUVcH3P/5E4FsoK4LRcLQzwW9Fh+K+c8OGDzcAYgy4Oc+bhTaCAW2bw9PD82DPwr5wy8I9AW5sHgefLhkAi8e3g/7tWkBUkI9FwAvXHhwSAm++9TZBb4WMOBrw4ush+BXo2Le3bZe1IEiASurcwNnJUCyjpE0UDC5JgKruKYYx+rwR+SAcc4bkwMTuKTCgKB5K20RBkxAfcJaRjSf13/g+WntUajdv3yHwFZAPMXCO9JjgV6hzsSDI7DmPANaolwOYI3/m/mnTCHqF5MKRYDe+FoJf4U6eMnWq6uF/5NHHCH6F5cIYPEd4TvAr3MlT77uP4Fe4TR0BFC1eA8GvsKCqAX6plXpk+R23AIeSSojgtyP8rg2cYUBeUwhuJC9/Xsm4gJNTPUhtGgiz+2fA/qf7cL0Tgp/gp3GfBYqBZ/kxjfbooj5wZGFv2DClBCZ1bglt40PMSq81RyGEN24I3bNiYOHwPDiw6J/FRrgJCe93CH6Cn+C3EfyoAMTHoQW9YMu/SuGJAelQ2S4OSlpHAK4L8PaQzsTDaUGEPKN5EPTIioUHerWBVyaXwOcL+1ZnEdbYYWh1pWEHIoJfH4Dzhgnk9lsAOK9BuZbf9W/LLwbf+PGJpTX3Bvhm+RADyB/N7QkfPtqt+vhkfi84tKR/jfUCxpCznpPlJ/BRhgl+B4efBbA1rxP8BD/BrzD42KDjJ0xgjqc9LLD81kDO+q4U/DMffpiGfDaQDZ7HWBfvkeVXsJOPHj8BoaHsElgervVrjPWNXX58buz2swC25nUp+Js2bQqnz54jBaCgbNQF3FL/SfBb2cHXrt+AF5Yth3ZFRYClrXiBNLXAj/eA22vn5uXBkqXPwtVr10kRWCknUiDWxfsEvwWdimW9Xnr5ZUN1XyxpxQNe/J6a4BdfN95jcUmJoWbf9Rs3SRFYIDN1AbfUfxL8MjsSgcdKteXlXSwq5IEwudvQ7cf9Az97qje8+VAZbH6wE/fYMK2jbIUlVgL4GPfiKysvN7QFVvWhw7I2wJ2hjp34Gn78+Zc6U6YEPwd+XKm3fuNG6Natu8XAi+Fxd1F+zI/TfwML4iDA291ioMXXSI/r2bUdsSYibnO2acsWu291RvAbwY+bdbz/wYeAO/biTjRKwqAk/KeWDYZhJQng7CS9o46S90C/ZTvlgHtEYNBYyl1X6n2C/3/woxs2cdIkbrTeWsFXCv6jzw2EzObBiioma++Nvq+MUvD19YU9H39iFwWga/hPnDwFD82cCbGxsXYBSQn4cWPQgpbs6USCUBkI67Id/fz84OtT39hcAegO/vMXL8L8pxZASkqK4sA3DgqBoLAI5u/iUlpc1GNqfl94TWqeH4t+1qVg0n/bR7nk5ObCb3/8aVMFoAv4b9y6bZimwukqnL9WUoB9/QMgPb8IBnabvQcAABTNSURBVI6dAhNnz4fsog7c39/zaFeL4cfdgP0psMdtXyX7tq5/a+tbbxH8lgQ4vvv+B3ht/Xro2bOXIpF6sSB4N/KF1NwC6DeqCibOnmeAHsHHo7R7P65wLh2eazH8z44u4P62+BrpsX0stC3buUuXrgS/XPhxR51t29+BQYOHgLe3t6KgeHp5Q3JmLvQZPh6qZtUEXgAfzwPGTOb+b3FSmMXw98tvxv3tVq1awZIlS+DVV181ebz22mvw5ptv0uEAbbBp0yYYPnw4tz+9vLxsOv2nercfx0UYHR03fjwEBgVxG9NcLe3u6QktUzOhR8VoqJo1t4aFFwMvflz18FzA77H+y6lePXi1qh1TAZxYUnNJrziHP60Z+/4CAgLgq6++gjNnzjCPK1euwLfffkuHA7VBRUUFU1ZQhs6cs90aC1XCj8Dv+/wATJ8xQ9F6+djYLq6u0KJVCnQdOAwmzHxSFvBi+PFxYhv+lt5YxmvH7HKTCuD4kn8q7ojBx8ctwn2ZgtK+fXsm9IJCuHbtGoHvQOCjIl6zZg2zT1Eevzx02Gauv6rg37lrNwwfMQJCQkO5DcayuqzXcUFOk+bx0KFnfxg7/TGLgBcrgL4jqySvL8TXA16bVFRLARx7hl2Bp3kYG/5OnToR/A4GthwvC4diLLnE1w98eVC/8P/6+x/w6tq1kJyczG0kXgOy3guNjIbCsu4w8v5ZVgMvhh8fRzWNk7xeLKrZKSUSXhxXAFjKS5juwzx9Y6uPzwl+7Q1ZCH6jFFshwPfh/+2ApKQkSYhYcJt63T8wGLKLOkLlpAcVB16sAAaNuw/q15e/4s/L3QU6JEfA9O4p8PqDneDkssG1FADBT/ALbChxdki3/+6330FFZaXVG2AK8Df09oGU7HxDJF4MqK0f53cot1hxoVeAhTlz4kOgS0YTGNKuBfh5uTF/j9x+dSoGsvwiy48BjpiYGKaQC0BLnV3d3A2Bt56VY7hTc7ZUADglKBX8k7oPue8T/AS/ud6AQ1l+zGiyZqPLBg1coFliKyjvVwHjZz5hU7dertKY8PBcSGidZrUyk1ICBD/Br1r4123YAOZUxRFgcHaubwiulXbvC2MefNQhgDdWDOgB5JWWgbPCqcVCG+CZ4Cf4VQk/ZuW5uEhvUCEIO0IU1TwBOvQcAKMfeMQhgTdWAPgcs//Co22zgpDgJ/hVB/+RY8dlF81A6ONap0O3YRNg2L9mqwZ6Y0XQa+hYiEtKMSQUCQrN2jPBT/CrCn4sk5WYmChrPBwYFgllQ0ZDvwkPQP+qB2ECJ7/eGDZHfT7+oSeg++AR0DozFwJCwsBJovovT0EQ/AS/quDnbW0lFvSWGbnQd/w0A/gI//D71Wv1eYpo7IzHAL2CdmU9oE1OW4hpkWioD9DIrzG4e7DXC2BbEfwEv2rgP/TVEckAH1rCrNLyaugRfDzGz5S3yIYHmhrfwwQlsVIUPyb4CX7VwN+5rIwpyAahdnKC7A5da4E/ZMpM1Y71rVU4BL86Aefl+OsuyWf/gS8ks/daZuTVAh+t/shp6onuWwu78fcJfu3Bv27dOq4R/OLgIW0t7MGy2GKX1fixf3Ao9B13v0n4xz3kGMk7xmDa4znBrz34d+zYwWTByckJrly9ph34MW9fKouvfd9Kk+Cj5edV0bEHgHX5H42DaMzPc6HV+N6dO3cAN0Y1NoD4vKi42GbgY3zA7um9a/79b5M3Ktx8eGxzJvgDJ83Q7XgflQ5WBxbayfhMAT/1egV79uyB4OCair1FixZw7sIFbcHfr19/pgCjQLfrPoAJf+XUhwn+eqYLUxL86oUfPZZLly7Bc889BzMffhjWrlsHP/z0s03BrxPLHxzCtl6eXj415vOFqT3hPHzaHIKf4Nd0KbKf7Lhxp13d/lOnz3CtfrOkNkyrjwpg9IzH9Q1/MFtxkuVXt+UX4hWahR93vDUeq4qfm0roEaw+nnF5bF0G3Or6vxsT/Jq2+qgANAv/tAce4MJfNvjv3H0x8MLjAVW2LbtV12DL+f+AYHbhUi1Zfhz/4t4DEydOhPLycigsLITS0lKorKyEhQsXwsGDBzWrBDQLP26XJbb04sdu7h7c8b6eM/sExaB1+HHfAQTcw8ODKSeCzOTk5MCWLVs0pwQ0C7+/vz+zU0OjY7nj/aEqXsIrwGvtWavw37t3D+bOnQvu7u5M+RCgNz537twZTp8+rRkloEn4pYJ9iek5XPhHOmiVHmuBNuf7ASHac/tv3boFvXv3Nht6sRKIioqCL774QhMKQJPwSwX78jr34MKv57ReQUFoDX60+H369LEKfEEJhISEwLFjx1SvADQJ/wMPPsjt5C6V47jw6zmtV4A/MCSM2YZqDPg9+eSTzPsRoDbnnJaWBrdv31a1AtAk/CWlpcyOdvPw5II/SOdpvVqE/8iRI7ICe+bAj5/F2IEwZ66mM+6j+Morr8C8efPhrbe3wS+//a6dDD//xo2Z8IdExXDh13tabzX8odqx/EOHDmXKgxh4DBK3bt1a9l4OuFux2jYk3b9/P2DcQnzfKSkpcPnKVZsqALtk+H1z5myNGxPfJD5OSMvmwj9Cx2v4BfDxHKgR+C9fviy5sjMsLAyeeeYZOHz4cPUGpLt27YIOHTpwZQnlacWKFaqx/nfv3oX4+HiT99Spc2f1w79h0yaTNycogdxO/GDfGJ2n9QoKIDA0nNmOahrzr127lnkfKBMI/nvvvQf79u2rAT9uNY7Tev378xeHdevWTTXw79y5k9kWuJ7/6rXrNlMAdrH8ksG+irFcy6/3tF4B/iCNwD958mSmwCP8ixYtMoCP8B84cKDa8iP8eBw9ehQCAwOZvxEaGqoa+DVfyYcb7HP34II/YOJ0XefzC+DjWSvwd+3alQmur68vfPbZZ9XwowI4depULQVQUVHB/A1UINevX1eFAtB8DT9rgn2U1ju/WvlpBf6ioiImuAkJCTXAR/gPHTpUC/5Zs2YxfwPhV0vWn6bhP332HLeTpIJ9at6ZR2y1lXgcFBrBbEs1jfk7duzIvI+IiIha8KMCOHHiRA0FgIt+EHLWgYuD1DDVJwW/qgt4Sgf7unPd/lGU1vuP5Q/TBvzDhw9nQoswb968uZYCwOmwkydPViuA5ORk5m94e3sDZg8S/H9xg4U2D/g9OH06s5Owo8srxnDhH+cgW20rYbmt/Y0gjcC/ePFirky0bdsW9u7da1IBYArv0qVLud/Pzc1VBfionDRt+Uvbt2d2lKtEsA/X8lNa7z9j/mCNwI9Ld3Eai+Wy4+sYFMR5fXT5xcfjjz8uufoP4wFqsPqah58X7AuObMK1+pTW+w/46DVoBX4U+vz8fC78qAAwuw9X/E2ZMgVwqIDBQJ7CwPfq168PmDpM8PNdfpsX8JQM9qVmceGvvE/f1XqNhwnBYZFM4VdTwA/B3Lp1K/NepADnvT9w4EDVgC/H8n956DB33G7u/nziz9t0zL9x82ZuB+d25Af7KK3XyPKHawd+FHzMxOOBbO57mCOAQUG1WH1Nwz99xgxu55YP4Qf7KK1X2/CfP38emjRpwpURuQrA2dkZ1q9fryrwNQ0/N9jn5s6t2UfVemuCbxjza8zyo/BjMc7ISLZHIwd+BP/ZZ59VHfiahr9xQABTqwdHRHPH+5TWWxv+kPCayz7FYKhtzI+CLxyYwJOVlcWUFfF9Gj/28/ODjRs3Vv+W8JtqOUtN9alyzH/mHD+zL74NP9hHab214Q/WoOUXIMUNK3FBT1BQkCwl0KBBA8Dg3tdff61a8PHepeA/ePgr9QX8Nm3Zwu3EnA7duJbf0rTe8TOfgJJuvaFVejZktC2GgWOnVmfIGUfP1fZcy/ALSgAX5KxevRp69OgB4eHhNfIBfHx8IC8vD+bMmWNY2Sd8R81nKfhVafmlgn1lQ9gbdOB435K03lEPzIEAozp3Tk7OUFTeSxMKQEvz/HKBvXnzJpw9exawAIjc76jpc1Lwq9Lyt+dUXHGVEewbN/NJs4FNaJNh0ttwdq4PFZMeMPv3HM0z0Ep6r5rgtPW1ahL+AE6xhSCJYJ+lab24649xQEh43rZjV/XDr5FiHrYGSk2/rzn4pYJ9Ldpkcsf7gybPsAhUAXRT54yCYot+05Gsv1bKeKkJTltfq+bglw72deXCX3nfLItANQW98FpGQYlFv+lQ8BvFM4R7w7Oap/psDZgj/74U/Ie+OqKuaP+Mhx5iut8oqLzdeNHltzStVwyD8WOC/4zqSlo7MrRKXZvm4O/AqdTi4uYmmdlnaVqvMfDi51qAX6sbdSoFkhp/R3Pw84J9jYPDoOvQ8dxj6JQZMHzqQ2YfYtiNHxP8ZPkdUTloCv6z589zXX5jKO31XAvwNw4OYbYtjfn/SRd2RMhZ1yQFv6rm+Te//jpTQO0Fuqn/0QT8QQQ/CyK1vq4p+KWCfabAtMdr2oA/mKlYyfJr0/KrKr2XF+yzB+Ss/9AC/P6BBL9aLTzruqUsv6pKdwfKXJXFgtRWr2sDfvaKN7L82rT8B748qI55fkcN9qFC0QL8fgEEP8uCqvV1KcuvGvgdNdinHfjZm1OS5dem5f/8iy/VYfkfmjmTGZBCAKeWt4LZfVKZx6P9M+DJIdkWH7whgzYsP8GvVgvPum4py7//wBfqgL9jp05M+L3cG8BXC3vD0UV9mMep5wfC+dWVFh8E/99bWAtbWRufr127psk18Syw1PC6ZuDnBfsymgYyoRcUwpnlgy0GH5UGwU/wqwF48TVKwb/v8wOOb/nPXbjAha+yME4S/rMrKwj+2bVr9wkrCyngp85xvRh248eagH/LG29w4X9qcCYX/mPP9LUKfH1Yfor2G8Oj9udS8Ksi2i8V7Ns+vSMX/hNL+hH8HKuP1p8sv/4svypy+3nBvoZu0sG+k88NIPitgL9jx47Ve9cbB/qE5xTwczzlIWX5Dx856vhj/qBgduppemwA1+pjwO+bFwYR/BLw8wp44g62p0+f5iqAq1evUrRftFmIIwwZHnvsMe5w+cTJU44N//mLF7k3UFHQXBL+Myusi/TrYczfNL4lt50nTpwIuPuNYOmNzxcvXiT4HQj+7du3A+44xJqlwu3Gv/v+B8eGf+tbbzFvAG9s/iB+sA8t/7lV1kX6tQR/v5FV0DorD7BOf0Mvb8CqxHigMLAERXjdxcUFcHML1oE72dJR923g5eUl2Ze4ByEqBzywQE6LFi2gf/8BsH7jRvj519+sVgqKbNE955FHuTey7UF+sO/YYusj/VqAf9iUGdCkeTy3LQXI6VxP1+0UGxsL773/gVUKQBH4e/ToyewIOcG+r5f2t3q8r3b4+4+ZDB4Npa0BQa9v6MX9j57BwkXPWKwAFIEftZD4osSP02QE+05amdaL4KsZfqxX6EngM2VILE/0uKbyc3JygjWvvmqRArAa/u9//Ik7Fh2Q11Qy2Hd6mfWRfjXDHysRyCOBrynw1B412wPjOxcvXzZbAVgNP5YZ4nXGjB4pkvCfXTFEt27/gDGTue3Ha1t6ryYEem6PSZMn2x/+d959jyu8y0fnS8KvRKRfrZa/TU4Bt/30LNB07/KVG84G/Pr7H2YpAKstv9Q03/rJxZLwC2N2a888YXHU9fwhEVFc+DMyMqB79+6KHL169YJ+/frRocI26Nq1K3h6enJl5cix4/aF//92/Id7QS+PL5QBv/Vz/Gq1/J5e3sz2S0tLgw8++ECxY/fu3bBv3z46VNoGs2fPZsoKGr7t77xrX/hxI0GexX28f7ok/OesXMoreAy863BUy+/q7s5sv549eyoGPiqRjz76iMBXKfiotF9++WWmrKDsv/X2NvvCj+mHON/IAq97RrQk/KetLOKhZvi9G7HTO1NTUxWFnyy/ur2eWbNmMTlD/j7+5FP7wv/7n38Z0g5Z8Lu71Iedc8q5CsDa8l1qhj+qaRyzQ1GpvvTSS4opgB07dpDlV6nl37t3L7Rq1YopKzjff+PmLfvDP278eOZFoVLARJ/P5/VgKgBM7z1nRe0+NcOfXdSB23aJiYmwbds2xRTAZ599RgpAhQpg0qRJXDnBVZ1oiM05rI7245/t3LWbe2GoAGKDfWDJsBw4/HQvk0rgGwUSfVjeB77uqGP+QePuk2y7pKQkWLNmjSIKYNeuXQS/iuDfs2cPDBs2DNCy8+Qbi+mYAz5+VhH4f/vjT65LIr5obw8XyG0RDP1yYmFkSTyM65BoOMZ3TITJXVtbdYj/x/hxWHQMZBaUOOSBK/aMr9f4Oa7ow+h/nz59YPDgwWYdKDzz5s2D999/36BAPvnkE9kKAN3N5557DsaNGwcjR46kw05tgH2GezHgCkxjWTB+jis5z5w7VzfwoxZ54803JS/S+KLpufwkDiXaCpXH22+/DR9++CF8+umnkgoAZwdycnKoX+vZt5/M7Wscdptr9RWz/MIf9+vXnwTFwQWld+/eBuuPCuDjjz/mKoAhQ4ZQfzp4f0ZFRcOtO3frHv5v//s94PSUuZqLPm8/y4KFIcSJQzgDgEoA3XvjBKDAQPYOQdRn9uszVltjQZC9+z+3CHzFLT/+4M3bd6BtAeWrszqsrl93dXWFb86cg9NnjY/zcOb8RTh74VL1IZVOWtf3ouf/x5V8mF0reN2WnBUJ+Bn/MZYYmjV7Nri5uZEX4GBuY25enmyBKSgspP5zsP5DhYfz/ebm8Rszis9tAr/wRxiBnFBVxS1SqGftbe97R6u/a/dHsuHf8/EngN+x93XS/5keUoSEhsLTCxfBT7/8KrsPBRZNnW0Kv/CHP/z0M7z73vswfcYM6NS5syEjEKcwSLBMd7LSwu/u7g55+fmw+6M9ZgsNKgAcxuFvKH1d9Hvs/sepXWQkJSUFRowcCa9v3Qo//vyL2f0nMGjqbBf4Tf0xvWZeNha1F7WX0jJA8JuZEql0B9DvEdR1JQMEP8GvqCtZV4JM/2u+EiX4CX6CX6cyQPDrtOPJUppvKbXWZgQ/wU+WX6cyQPDrtOO1ZsXofsz3ZAh+gp8sv05lgODXaceTpTTfUmqtzQh+gp8sv05lgODXacdrzYrR/ZjvyRD8BD9Zfp3KAMGv044nS2m+pdRamxH8BD9Zfp3KwP8Dmno0KwgW8kkAAAAASUVORK5CYII=;" vertex="1" parent="1">
          <mxGeometry x="310" y="590" width="65" height="69.84" as="geometry" />
        </mxCell>
        <mxCell id="jB2mbe5VPFW1o1fGi5t6-23" value="" style="edgeStyle=orthogonalEdgeStyle;rounded=0;orthogonalLoop=1;jettySize=auto;html=1;strokeColor=#7EA6E0;fontColor=#143642;fillColor=#FAE5C7;strokeWidth=3;shadow=1;" edge="1" parent="1" source="jB2mbe5VPFW1o1fGi5t6-24" target="jB2mbe5VPFW1o1fGi5t6-22">
          <mxGeometry relative="1" as="geometry" />
        </mxCell>
        <mxCell id="jB2mbe5VPFW1o1fGi5t6-24" value="馒头GPT" style="image;points=[];aspect=fixed;html=1;align=center;shadow=0;dashed=0;image=img/lib/allied_telesis/computer_and_terminals/Server_Desktop.svg;strokeColor=#0F8B8D;fontColor=#143642;fillColor=#FAE5C7;" vertex="1" parent="1">
          <mxGeometry x="420" y="598" width="42.599999999999994" height="54" as="geometry" />
        </mxCell>
        <mxCell id="jB2mbe5VPFW1o1fGi5t6-25" value="" style="edgeStyle=orthogonalEdgeStyle;rounded=0;orthogonalLoop=1;jettySize=auto;html=1;strokeColor=#7EA6E0;fontColor=#143642;fillColor=#FAE5C7;strokeWidth=3;shadow=1;" edge="1" parent="1" source="jB2mbe5VPFW1o1fGi5t6-26" target="jB2mbe5VPFW1o1fGi5t6-24">
          <mxGeometry relative="1" as="geometry" />
        </mxCell>
        <mxCell id="jB2mbe5VPFW1o1fGi5t6-26" value="索引服务" style="image;points=[];aspect=fixed;html=1;align=center;shadow=0;dashed=0;image=img/lib/allied_telesis/computer_and_terminals/Server_Desktop.svg;strokeColor=#0F8B8D;fontColor=#143642;fillColor=#FAE5C7;" vertex="1" parent="1">
          <mxGeometry x="510" y="597.9200000000001" width="42.599999999999994" height="54" as="geometry" />
        </mxCell>
        <mxCell id="jB2mbe5VPFW1o1fGi5t6-27" value="" style="edgeStyle=orthogonalEdgeStyle;rounded=0;orthogonalLoop=1;jettySize=auto;html=1;strokeColor=#7EA6E0;fontColor=#143642;fillColor=#FAE5C7;strokeWidth=3;shadow=1;" edge="1" parent="1" source="jB2mbe5VPFW1o1fGi5t6-28" target="jB2mbe5VPFW1o1fGi5t6-26">
          <mxGeometry relative="1" as="geometry" />
        </mxCell>
        <mxCell id="jB2mbe5VPFW1o1fGi5t6-28" value="数据库" style="shape=cylinder3;whiteSpace=wrap;html=1;boundedLbl=1;backgroundOutline=1;size=15;strokeColor=#7EA6E0;fillColor=#d5e8d4;strokeWidth=3;shadow=1;" vertex="1" parent="1">
          <mxGeometry x="600" y="585" width="60" height="80" as="geometry" />
        </mxCell>
        <mxCell id="jB2mbe5VPFW1o1fGi5t6-29" value="全托管部署" style="text;html=1;strokeColor=#7EA6E0;fillColor=none;align=center;verticalAlign=middle;whiteSpace=wrap;rounded=1;shadow=1;" vertex="1" parent="1">
          <mxGeometry x="220" y="609.92" width="70" height="30" as="geometry" />
        </mxCell>
      </root>
    </mxGraphModel>
  </diagram>
</mxfile>
